<svg width="25" height="21" viewBox="0 0 25 21" fill="none" xmlns="http://www.w3.org/2000/svg">
<path d="M15.3688 19.5867L23.5824 11.436C24.3348 10.6848 24.3348 9.4656 23.5824 8.71697L15.3688 0.561357C14.6101 -0.189783 13.3821 -0.186014 12.6234 0.561357C11.8723 1.31376 11.8723 2.52795 12.6234 3.28035L17.4285 8.04777L2.01437 8.04777C0.900864 8.04777 -2.28882e-05 8.9474 -2.28882e-05 10.0609C-2.28882e-05 11.1732 0.900864 12.074 2.01437 12.074L17.4575 12.074L12.6234 16.8666C11.8723 17.6177 11.8723 18.8332 12.6234 19.5843C13.3809 20.3367 14.6089 20.338 15.3688 19.5868V19.5867Z" fill="white"/>
</svg>
