<svg width="61" height="48" viewBox="0 0 61 48" fill="none" xmlns="http://www.w3.org/2000/svg">
<path fill-rule="evenodd" clip-rule="evenodd" d="M59.5976 43.8608C59.5882 43.8893 59.5765 43.9178 59.5623 43.9439L59.5628 43.9435C59.5487 43.972 59.5346 43.9981 59.5064 44.0171C59.4954 44.0345 59.4844 44.0497 59.4734 44.065C59.4679 44.0727 59.4625 44.0803 59.457 44.0882C59.4382 44.112 59.417 44.1381 59.3958 44.1618L59.3705 44.1872C59.3598 44.1977 59.3488 44.2082 59.337 44.2188C59.3135 44.2425 59.2876 44.2639 59.2618 44.2829C59.2406 44.2971 59.2147 44.3137 59.1912 44.3279C59.1793 44.334 59.1677 44.3405 59.1561 44.347C59.1402 44.3559 59.1242 44.3648 59.1066 44.373C59.0867 44.383 59.0657 44.3907 59.0444 44.3985C59.0354 44.4018 59.0263 44.4051 59.0172 44.4086C58.9984 44.4158 58.9819 44.4253 58.9608 44.43C58.9591 44.4304 58.9575 44.4307 58.956 44.4309C58.9531 44.4312 58.9505 44.4312 58.9478 44.4312C58.9452 44.4312 58.9426 44.4312 58.9399 44.4315C58.9383 44.4316 58.9366 44.4319 58.9349 44.4324C58.862 44.4514 58.7867 44.4632 58.7091 44.4632C58.6033 44.4632 58.5657 44.4798 58.5657 44.4798C58.5224 44.5304 58.4438 44.7835 58.3941 44.9439L58.3893 44.9592C58.2058 45.5526 57.8225 46.7866 56.2728 46.7866C54.9471 46.7866 54.2886 45.8984 53.8068 45.2486L53.8034 45.244C53.3519 44.6293 53.1802 44.4632 52.8415 44.4632C52.5029 44.4632 52.3335 44.6293 51.8797 45.2416L51.8763 45.2461C51.3945 45.896 50.736 46.7842 49.408 46.7842C48.0823 46.7842 47.4238 45.896 46.942 45.2461L46.9386 45.2416C46.4871 44.6293 46.3154 44.4632 45.9768 44.4632C45.6405 44.4632 45.4688 44.6293 45.0149 45.244C44.5351 45.8943 43.8743 46.7866 42.5456 46.7866C41.2176 46.7866 40.5591 45.8984 40.0773 45.2486L40.0739 45.244C39.6223 44.6317 39.4506 44.4656 39.112 44.4656C38.7733 44.4656 38.604 44.6317 38.1501 45.244C37.6704 45.8943 37.0118 46.7866 35.6808 46.7866C34.3551 46.7866 33.6966 45.8984 33.2148 45.2486L33.2115 45.244C32.7599 44.6317 32.5882 44.4656 32.2496 44.4656C31.9133 44.4656 31.7416 44.6318 31.2877 45.2464C30.8079 45.8967 30.1471 46.7891 28.8184 46.7891C27.4927 46.7891 26.8342 45.9009 26.3524 45.251L26.349 45.2464C25.8975 44.6342 25.7258 44.468 25.3872 44.468C25.0509 44.468 24.8792 44.6342 24.4253 45.2488C23.9455 45.8991 23.2846 46.7915 21.9559 46.7915C21.5349 46.7915 21.1516 46.6182 20.8812 46.305C20.225 45.5503 20.3567 44.264 20.6272 42.2277L20.6318 42.1925C20.7284 41.4558 20.8757 40.3322 20.8271 39.7857C19.0704 40.132 16.5775 43.685 15.2841 46.2695C15.1242 46.5923 14.7973 46.7916 14.4446 46.7916H14.4445C14.4257 46.7916 14.4069 46.7916 14.3881 46.7892C14.0142 46.7679 13.6873 46.5235 13.5603 46.1675C13.3439 45.5642 11.4955 40.1938 13.4168 37.2225C14.1365 36.1118 15.3029 35.4734 16.7939 35.3761C18.0897 35.2906 18.6824 34.9394 18.7952 34.6617C18.8705 34.4766 18.7506 34.161 18.4872 33.8596C17.7863 33.055 16.2201 32.4095 14.4375 32.8984C11.9657 33.5728 9.19539 36.9166 8.26174 40.3531C7.93483 41.5611 7.58204 43.7967 8.91785 45.1803C9.28001 45.5576 9.27061 46.158 8.89903 46.5235C8.5251 46.889 7.9325 46.8818 7.56798 46.5045C6.09344 44.9786 5.69599 42.6149 6.4462 39.8524C7.41729 36.2735 10.4888 32.0088 13.9458 31.0666C16.5209 30.3642 18.7903 31.3324 19.9004 32.6069C20.6694 33.4873 20.8999 34.5007 20.5353 35.3883C20.2179 36.1597 19.3336 37.1137 16.916 37.2727C16.0153 37.3321 15.3874 37.6572 14.9947 38.2623C14.2022 39.4869 14.3856 41.6584 14.7454 43.3909C16.1565 41.1054 18.6329 37.7853 21.1963 37.866C21.6102 37.8802 21.9841 38.0606 22.2475 38.3762C22.5109 38.6895 22.6402 39.0953 22.6873 39.5984C24.4181 38.4427 26.9442 37.2987 31.9298 36.7909C26.5253 14.696 36.685 2.25785 37.146 1.70963C37.1499 1.70567 37.1538 1.70253 37.1576 1.69953C37.1628 1.69535 37.1677 1.69143 37.1718 1.6859C37.2 1.65504 37.2283 1.62894 37.2588 1.60283C37.2776 1.58385 37.2965 1.56723 37.3176 1.55299C37.3465 1.53355 37.3754 1.5173 37.4056 1.50031L37.4258 1.48892C37.4446 1.47705 37.4634 1.46518 37.4846 1.45569C37.5293 1.4367 37.574 1.42246 37.621 1.4106C37.632 1.40902 37.6429 1.40533 37.6539 1.40163L37.654 1.40162C37.6594 1.39978 37.6649 1.39794 37.6704 1.39636C37.7339 1.38212 37.7997 1.375 37.8679 1.375L38.0067 1.37975C38.2842 1.37975 38.5452 1.50078 38.7239 1.71437C39.1849 2.25995 49.2949 14.6346 43.9871 36.6225C57.8667 37.4435 59.5647 43.0325 59.6305 43.277C59.6311 43.2794 59.6316 43.282 59.632 43.2846C59.6323 43.2872 59.6326 43.2898 59.6329 43.2924C59.6335 43.2977 59.6341 43.3031 59.6352 43.3078L59.6494 43.4004C59.6541 43.4336 59.6588 43.4668 59.6588 43.5001L59.6589 43.5049C59.6592 43.5081 59.6595 43.5112 59.6599 43.5143C59.6602 43.5167 59.6605 43.5191 59.6608 43.5215C59.661 43.5239 59.6611 43.5262 59.6611 43.5285C59.6611 43.5349 59.6608 43.5409 59.6604 43.5469C59.6597 43.5571 59.6584 43.5669 59.6571 43.5774L59.6564 43.5831L59.6562 43.5865C59.6539 43.6188 59.6515 43.6531 59.6446 43.6852C59.6399 43.7137 59.6329 43.7421 59.6258 43.7706C59.623 43.78 59.6203 43.7894 59.6177 43.7987C59.6117 43.82 59.6058 43.841 59.5976 43.8608ZM38.8081 39.5462H41.2398C46.5949 21.8731 41.5573 9.95919 38.8081 5.22928V39.5462ZM36.9268 5.47837V39.5462H34.6338C29.3824 22.217 34.1564 10.3789 36.9268 5.47837ZM56.599 44.4197L56.6039 44.4042L56.6031 44.4043C56.7136 44.0483 56.9017 43.4645 57.365 43.0539C56.3235 41.7249 53.0382 38.9956 43.5018 38.4996C43.2949 39.252 43.0715 40.0138 42.8269 40.7874C42.7022 41.1814 42.3401 41.4495 41.9309 41.4495H33.94C33.5308 41.4495 33.1686 41.1814 33.044 40.7874C32.8182 40.066 32.6112 39.3563 32.416 38.6563C26.3696 39.2306 24.2061 40.7613 22.5528 42.0523C22.5455 42.1079 22.5385 42.1631 22.5314 42.2188C22.5204 42.3058 22.5093 42.394 22.4964 42.4866C22.4047 43.1796 22.2635 44.2476 22.2918 44.8172C22.4635 44.7151 22.6375 44.5063 22.9197 44.1218L22.9231 44.1173C23.4049 43.4674 24.0634 42.5792 25.3914 42.5792C26.717 42.5792 27.3755 43.4674 27.8573 44.1172L27.8607 44.1218C28.3123 44.7341 28.4839 44.9002 28.8226 44.9002C29.1612 44.9002 29.3306 44.7341 29.7845 44.1218L29.7878 44.1173C30.2696 43.4674 30.9282 42.5792 32.2561 42.5792C33.5818 42.5792 34.2403 43.4674 34.7221 44.1172L34.7255 44.1218C35.1794 44.7341 35.3511 44.9002 35.6874 44.9002C36.026 44.9002 36.1954 44.7341 36.6492 44.1218C37.129 43.4715 37.7875 42.5792 39.1186 42.5792C40.4442 42.5792 41.1027 43.4674 41.5845 44.1172L41.5879 44.1218C42.0418 44.7365 42.2135 44.9026 42.5521 44.9026C42.8908 44.9026 43.0601 44.7365 43.514 44.1242L43.5174 44.1197C43.9992 43.4698 44.6577 42.5816 45.9857 42.5816C47.3113 42.5816 47.9698 43.4698 48.4516 44.1197L48.455 44.1242C48.9066 44.7365 49.0783 44.9026 49.4169 44.9026C49.7555 44.9026 49.9272 44.7365 50.3811 44.1218C50.8609 43.4715 51.5218 42.5792 52.8505 42.5792C54.1785 42.5792 54.8369 43.4674 55.3187 44.1172L55.3221 44.1218C55.776 44.7341 55.9477 44.9002 56.284 44.9002C56.3898 44.9002 56.4275 44.8836 56.4275 44.8836C56.4707 44.833 56.5493 44.58 56.599 44.4197Z" fill="white"/>
<path d="M59.5623 43.9439L59.1225 43.7061L59.8802 44.3298L59.5623 43.9439ZM59.5976 43.8608L59.1355 43.67L59.1285 43.6867L59.1228 43.704L59.5976 43.8608ZM59.5628 43.9435L60.0108 44.1655L59.2449 43.5575L59.5628 43.9435ZM59.5064 44.0171L59.2273 43.6022L59.1397 43.6611L59.0834 43.7504L59.5064 44.0171ZM59.4734 44.065L59.8796 44.3566L59.8797 44.3565L59.4734 44.065ZM59.457 44.0882L59.8488 44.3989L59.8587 44.3864L59.8678 44.3733L59.457 44.0882ZM59.3958 44.1618L59.7495 44.5152L59.7596 44.5052L59.769 44.4946L59.3958 44.1618ZM59.3705 44.1872L59.7213 44.5435L59.7242 44.5406L59.3705 44.1872ZM59.337 44.2188L59.0032 43.8466L58.9922 43.8564L58.9819 43.8669L59.337 44.2188ZM59.2618 44.2829L59.5409 44.6977L59.5494 44.692L59.5576 44.6859L59.2618 44.2829ZM59.1912 44.3279L59.4165 44.7743L59.4337 44.7657L59.4502 44.7557L59.1912 44.3279ZM59.1561 44.347L59.4004 44.7832L59.4004 44.7832L59.1561 44.347ZM59.1066 44.373L58.8955 43.9198L58.8884 43.9231L58.8813 43.9267L59.1066 44.373ZM59.0444 44.3985L59.2158 44.8682L59.2158 44.8682L59.0444 44.3985ZM59.0172 44.4086L59.1942 44.8763L59.198 44.8748L59.0172 44.4086ZM58.9608 44.43L58.8513 43.9419L58.8384 43.9452L58.9608 44.43ZM58.956 44.4309L59.0124 44.9277L59.0125 44.9277L58.956 44.4309ZM58.9399 44.4315L58.9927 44.9287L58.9935 44.9286L58.9399 44.4315ZM58.9349 44.4324L58.8124 43.9476L58.8089 43.9485L58.9349 44.4324ZM58.5657 44.4798L58.3637 44.0224L58.2597 44.0684L58.1858 44.1547L58.5657 44.4798ZM58.3941 44.9439L58.8716 45.0921L58.8716 45.0921L58.3941 44.9439ZM58.3893 44.9592L57.9118 44.811L57.9116 44.8115L58.3893 44.9592ZM53.8068 45.2486L54.2085 44.9508L54.2084 44.9507L53.8068 45.2486ZM53.8034 45.244L53.4005 45.54L53.4018 45.5418L53.8034 45.244ZM51.8797 45.2416L52.2812 45.5394L52.2813 45.5393L51.8797 45.2416ZM51.8763 45.2461L51.4747 44.9482L51.4747 44.9483L51.8763 45.2461ZM46.942 45.2461L46.5402 45.5437L46.5404 45.5439L46.942 45.2461ZM46.9386 45.2416L46.5362 45.5383L46.5368 45.5391L46.9386 45.2416ZM45.0149 45.244L44.6127 44.947L44.6125 44.9471L45.0149 45.244ZM40.0773 45.2486L40.4789 44.9508L40.4789 44.9507L40.0773 45.2486ZM40.0739 45.244L39.6715 45.5408L39.6723 45.5418L40.0739 45.244ZM38.1501 45.244L37.7484 44.9462L37.7478 44.9471L38.1501 45.244ZM33.2148 45.2486L33.6165 44.9508L33.6165 44.9508L33.2148 45.2486ZM33.2115 45.244L32.8091 45.5408L32.8098 45.5418L33.2115 45.244ZM31.2877 45.2464L30.8855 44.9494L30.8854 44.9496L31.2877 45.2464ZM26.3524 45.251L26.7541 44.9532L26.7541 44.9532L26.3524 45.251ZM26.349 45.2464L25.9466 45.5432L25.9474 45.5442L26.349 45.2464ZM24.4253 45.2488L24.0231 44.9518L24.0229 44.952L24.4253 45.2488ZM20.8812 46.305L21.2597 45.9782L21.2585 45.9769L20.8812 46.305ZM20.6272 42.2277L21.1228 42.2936L21.123 42.2927L20.6272 42.2277ZM20.6318 42.1925L20.1361 42.1275L20.1361 42.1275L20.6318 42.1925ZM20.8271 39.7857L21.3251 39.7414L21.2759 39.1876L20.7304 39.2951L20.8271 39.7857ZM15.2841 46.2695L14.837 46.0457L14.8361 46.0475L15.2841 46.2695ZM14.3881 46.7892L14.4508 46.2932L14.4337 46.291L14.4166 46.29L14.3881 46.7892ZM13.5603 46.1675L14.0312 45.9995L14.031 45.9987L13.5603 46.1675ZM13.4168 37.2225L12.9972 36.9506L12.997 36.951L13.4168 37.2225ZM16.7939 35.3761L16.8265 35.875L16.8268 35.875L16.7939 35.3761ZM18.7952 34.6617L19.2584 34.85L19.2584 34.85L18.7952 34.6617ZM18.4872 33.8596L18.1102 34.188L18.1107 34.1886L18.4872 33.8596ZM14.4375 32.8984L14.5691 33.3808L14.5697 33.3806L14.4375 32.8984ZM8.26174 40.3531L7.77923 40.222L7.7791 40.2225L8.26174 40.3531ZM8.91785 45.1803L9.27859 44.834L9.27755 44.833L8.91785 45.1803ZM8.89903 46.5235L9.24852 46.8811L9.24965 46.88L8.89903 46.5235ZM7.56798 46.5045L7.92759 46.1571L7.92753 46.157L7.56798 46.5045ZM6.4462 39.8524L6.92872 39.9835L6.92875 39.9834L6.4462 39.8524ZM13.9458 31.0666L14.0773 31.549L14.0774 31.549L13.9458 31.0666ZM19.9004 32.6069L19.5233 32.9353L19.5238 32.9358L19.9004 32.6069ZM20.5353 35.3883L20.9977 35.5786L20.9979 35.5783L20.5353 35.3883ZM16.916 37.2727L16.8832 36.7738L16.8832 36.7738L16.916 37.2727ZM14.9947 38.2623L14.5753 37.9901L14.5749 37.9907L14.9947 38.2623ZM14.7454 43.3909L14.2559 43.4926L14.5112 44.722L15.1709 43.6536L14.7454 43.3909ZM21.1963 37.866L21.2135 37.3663L21.212 37.3662L21.1963 37.866ZM22.2475 38.3762L21.8636 38.6966L21.8648 38.698L22.2475 38.3762ZM22.6873 39.5984L22.1894 39.645L22.2675 40.4799L22.9649 40.0142L22.6873 39.5984ZM31.9298 36.7909L31.9805 37.2883L32.552 37.2301L32.4155 36.6721L31.9298 36.7909ZM37.146 1.70963L36.7908 1.35766L36.7764 1.3722L36.7632 1.38786L37.146 1.70963ZM37.1576 1.69953L37.4696 2.09024L37.4696 2.09024L37.1576 1.69953ZM37.1718 1.6859L36.8029 1.34844L36.7857 1.36722L36.7705 1.38764L37.1718 1.6859ZM37.2588 1.60283L37.5835 1.98308L37.5993 1.96956L37.614 1.95477L37.2588 1.60283ZM37.3176 1.55299L37.0385 1.13813L37.0385 1.13814L37.3176 1.55299ZM37.4056 1.50031L37.6508 1.93608L37.6513 1.93576L37.4056 1.50031ZM37.4258 1.48892L37.6715 1.92437L37.6822 1.91835L37.6925 1.91182L37.4258 1.48892ZM37.4846 1.45569L37.289 0.995418L37.28 0.999475L37.4846 1.45569ZM37.621 1.4106L37.5497 0.915715L37.5239 0.919426L37.4987 0.925788L37.621 1.4106ZM37.6539 1.40163L37.8133 1.87556L37.8175 1.87413L37.6539 1.40163ZM37.654 1.40162L37.4946 0.927682L37.4904 0.929122L37.654 1.40162ZM37.6704 1.39636L37.561 0.908479L37.5463 0.911763L37.5319 0.915918L37.6704 1.39636ZM37.8679 1.375L37.885 0.875292L37.8765 0.875H37.8679V1.375ZM38.0067 1.37975L37.9896 1.87945L37.9981 1.87975H38.0067V1.37975ZM38.7239 1.71437L38.3405 2.03525L38.342 2.03705L38.7239 1.71437ZM43.9871 36.6225L43.5011 36.5051L43.3608 37.0863L43.9576 37.1216L43.9871 36.6225ZM59.6305 43.277L60.1159 43.1566L60.1133 43.1469L59.6305 43.277ZM59.632 43.2846L60.1272 43.2158L60.1271 43.2153L59.632 43.2846ZM59.6329 43.2924L60.1299 43.2377L60.1299 43.2375L59.6329 43.2924ZM59.6352 43.3078L60.1295 43.2325L60.1261 43.2099L60.1206 43.1877L59.6352 43.3078ZM59.6494 43.4004L60.1444 43.3303L60.1436 43.325L59.6494 43.4004ZM59.6588 43.5001H59.1588V43.5094L59.1591 43.5188L59.6588 43.5001ZM59.6589 43.5049L59.1593 43.5237L59.1596 43.532L59.1602 43.5403L59.6589 43.5049ZM59.6599 43.5143L60.1562 43.453V43.453L59.6599 43.5143ZM59.6608 43.5215L59.1628 43.5673L59.1629 43.5678L59.6608 43.5215ZM59.6604 43.5469L59.1617 43.5107L59.1617 43.5107L59.6604 43.5469ZM59.6571 43.5774L59.161 43.5152L59.161 43.5155L59.6571 43.5774ZM59.6564 43.5831L59.1603 43.5212L59.1586 43.5344L59.1577 43.5478L59.6564 43.5831ZM59.6562 43.5865L59.1574 43.5512L59.1574 43.5513L59.6562 43.5865ZM59.6446 43.6852L59.1556 43.5813L59.1532 43.5925L59.1513 43.6037L59.6446 43.6852ZM59.6258 43.7706L60.1041 43.9165L60.108 43.9038L60.1112 43.8909L59.6258 43.7706ZM59.6177 43.7987L59.1364 43.6631L59.1364 43.6632L59.6177 43.7987ZM41.2398 39.5462V40.0462H41.6108L41.7183 39.6912L41.2398 39.5462ZM38.8081 39.5462H38.3081V40.0462H38.8081V39.5462ZM38.8081 5.22928L39.2404 4.97802L38.3081 3.37403V5.22928H38.8081ZM36.9268 39.5462V40.0462H37.4268V39.5462H36.9268ZM36.9268 5.47837H37.4268V3.5779L36.4915 5.23231L36.9268 5.47837ZM34.6338 39.5462L34.1553 39.6912L34.2629 40.0462H34.6338V39.5462ZM56.6039 44.4042L57.0814 44.5523L57.3126 43.8068L56.5388 43.9085L56.6039 44.4042ZM56.599 44.4197L57.0766 44.5679L57.0766 44.5678L56.599 44.4197ZM56.6031 44.4043L56.1256 44.256L55.8941 45.0017L56.6682 44.9L56.6031 44.4043ZM57.365 43.0539L57.6967 43.4281L58.0489 43.1159L57.7586 42.7455L57.365 43.0539ZM43.5018 38.4996L43.5278 38.0003L43.1264 37.9794L43.0197 38.367L43.5018 38.4996ZM42.8269 40.7874L43.3036 40.9383L43.3036 40.9381L42.8269 40.7874ZM33.044 40.7874L32.5668 40.9368L32.5673 40.9382L33.044 40.7874ZM32.416 38.6563L32.8977 38.522L32.7853 38.1189L32.3688 38.1585L32.416 38.6563ZM22.5528 42.0523L22.2451 41.6583L22.0839 41.7841L22.0571 41.9869L22.5528 42.0523ZM22.5314 42.2188L23.0275 42.2816V42.2816L22.5314 42.2188ZM22.4964 42.4866L22.0011 42.4176L22.0007 42.421L22.4964 42.4866ZM22.2918 44.8172L21.7924 44.8419L21.8335 45.6711L22.5472 45.247L22.2918 44.8172ZM22.9197 44.1218L22.518 43.8241L22.5166 43.8259L22.9197 44.1218ZM22.9231 44.1173L22.5214 43.8195L22.5213 43.8196L22.9231 44.1173ZM27.8573 44.1172L27.4557 44.415L27.4557 44.4151L27.8573 44.1172ZM27.8607 44.1218L28.2631 43.825L28.2623 43.824L27.8607 44.1218ZM29.7845 44.1218L30.1861 44.4196L30.1862 44.4195L29.7845 44.1218ZM29.7878 44.1173L29.3862 43.8195L29.3861 43.8196L29.7878 44.1173ZM34.7221 44.1172L34.3204 44.415L34.3205 44.4151L34.7221 44.1172ZM34.7255 44.1218L35.1271 43.824L35.1271 43.824L34.7255 44.1218ZM36.6492 44.1218L37.0509 44.4196L37.0516 44.4187L36.6492 44.1218ZM41.5845 44.1172L41.9863 43.8196L41.9862 43.8194L41.5845 44.1172ZM41.5879 44.1218L41.9901 43.8248L41.9897 43.8242L41.5879 44.1218ZM43.514 44.1242L43.1124 43.8265L43.1123 43.8265L43.514 44.1242ZM43.5174 44.1197L43.1157 43.8219L43.1157 43.8219L43.5174 44.1197ZM48.4516 44.1197L48.05 44.4174L48.05 44.4175L48.4516 44.1197ZM48.455 44.1242L48.8574 43.8275L48.8566 43.8264L48.455 44.1242ZM50.3811 44.1218L50.7833 44.4188L50.7835 44.4187L50.3811 44.1218ZM55.3187 44.1172L54.9171 44.415L54.9171 44.4151L55.3187 44.1172ZM55.3221 44.1218L55.7238 43.824L55.7237 43.824L55.3221 44.1218ZM56.4275 44.8836L56.6294 45.341L56.7334 45.2951L56.8073 45.2087L56.4275 44.8836ZM60.0022 44.1816C60.0328 44.125 60.0556 44.0685 60.0724 44.0176L59.1228 43.704C59.122 43.7066 59.1213 43.7082 59.121 43.709C59.1207 43.7097 59.1211 43.7087 59.1225 43.7061L60.0022 44.1816ZM59.2449 43.5575L59.2445 43.5579L59.8802 44.3298L59.8806 44.3294L59.2449 43.5575ZM59.7854 44.4319C59.9333 44.3324 59.9959 44.1957 60.0108 44.1655L59.1148 43.7215C59.1015 43.7483 59.1358 43.6637 59.2273 43.6022L59.7854 44.4319ZM59.8797 44.3565C59.8898 44.3425 59.9092 44.3156 59.9293 44.2837L59.0834 43.7504C59.0828 43.7514 59.0816 43.7532 59.079 43.7569C59.0762 43.761 59.073 43.7654 59.0672 43.7736L59.8797 44.3565ZM59.8678 44.3733C59.8706 44.3692 59.8738 44.3647 59.8796 44.3566L59.0672 43.7735C59.0621 43.7807 59.0543 43.7915 59.0462 43.8032L59.8678 44.3733ZM59.769 44.4946C59.8 44.4599 59.8283 44.4247 59.8488 44.3989L59.0652 43.7776C59.048 43.7993 59.034 43.8163 59.0227 43.829L59.769 44.4946ZM59.7242 44.5406L59.7495 44.5152L59.0421 43.8084L59.0168 43.8338L59.7242 44.5406ZM59.6709 44.591C59.6902 44.5737 59.7071 44.5575 59.7213 44.5435L59.0197 43.8309C59.0125 43.838 59.0074 43.8428 59.0032 43.8466L59.6709 44.591ZM59.5576 44.6859C59.5988 44.6557 59.6459 44.6175 59.6922 44.5707L58.9819 43.8669C58.9817 43.867 58.9804 43.8683 58.9776 43.8707C58.9748 43.8731 58.9709 43.8761 58.9659 43.8798L59.5576 44.6859ZM59.4502 44.7557C59.481 44.737 59.5136 44.716 59.5409 44.6977L58.9827 43.868C58.9676 43.8782 58.9484 43.8904 58.9323 43.9002L59.4502 44.7557ZM59.4004 44.7832C59.4066 44.7797 59.4101 44.7778 59.4131 44.7761C59.4159 44.7746 59.4167 44.7742 59.4165 44.7743L58.966 43.8816C58.9428 43.8933 58.9219 43.9051 58.9117 43.9108L59.4004 44.7832ZM59.3176 44.8263C59.3548 44.809 59.3866 44.7909 59.4004 44.7832L58.9117 43.9107C58.9031 43.9156 58.8994 43.9176 58.8962 43.9193C58.8936 43.9208 58.8937 43.9206 58.8955 43.9198L59.3176 44.8263ZM59.2158 44.8682C59.2323 44.8622 59.2813 44.8449 59.3318 44.8194L58.8813 43.9267C58.8886 43.923 58.8927 43.9214 58.891 43.9221C58.8903 43.9224 58.8886 43.923 58.8855 43.9242C58.8822 43.9254 58.8786 43.9268 58.8729 43.9288L59.2158 44.8682ZM59.198 44.8748C59.2017 44.8734 59.2062 44.8717 59.2158 44.8682L58.873 43.9288C58.8646 43.9319 58.8509 43.9369 58.8364 43.9425L59.198 44.8748ZM59.0702 44.9179C59.1232 44.906 59.1641 44.8894 59.1847 44.8807C59.1898 44.8785 59.1943 44.8766 59.1972 44.8753C59.201 44.8736 59.2012 44.8735 59.2028 44.8728C59.2049 44.8719 59.2008 44.8738 59.1942 44.8763L58.8402 43.941C58.8242 43.9471 58.811 43.9528 58.804 43.9558C58.8022 43.9566 58.8005 43.9573 58.7992 43.9579C58.7977 43.9585 58.7971 43.9588 58.7961 43.9592C58.7945 43.96 58.7944 43.96 58.795 43.9597C58.7974 43.9587 58.8195 43.9493 58.8514 43.9421L59.0702 44.9179ZM59.0125 44.9277C59.0334 44.9253 59.0572 44.9213 59.0831 44.9148L58.8384 43.9452C58.861 43.9395 58.8816 43.9361 58.8994 43.9341L59.0125 44.9277ZM58.9478 44.9312C58.948 44.9312 58.9567 44.9312 58.9667 44.9309C58.9777 44.9306 58.9935 44.9298 59.0124 44.9277L58.8995 43.9341C58.9156 43.9322 58.9287 43.9316 58.937 43.9314C58.9443 43.9311 58.9503 43.9312 58.9478 43.9312V44.9312ZM58.9935 44.9286C58.9782 44.9303 58.9657 44.9308 58.9579 44.931C58.9511 44.9312 58.9454 44.9312 58.9478 44.9312V43.9312C58.9476 43.9312 58.9394 43.9312 58.9299 43.9314C58.9195 43.9317 58.9044 43.9324 58.8864 43.9344L58.9935 44.9286ZM59.0574 44.9171C59.0339 44.9231 59.0121 44.9266 58.9927 44.9287L58.8872 43.9343C58.8645 43.9367 58.8394 43.9408 58.8124 43.9476L59.0574 44.9171ZM58.7091 44.9632C58.8379 44.9632 58.9562 44.9435 59.0609 44.9162L58.8089 43.9485C58.7678 43.9592 58.7356 43.9632 58.7091 43.9632V44.9632ZM58.5657 44.4798C58.7676 44.9372 58.7674 44.9373 58.7671 44.9374C58.7671 44.9375 58.7668 44.9376 58.7667 44.9376C58.7664 44.9378 58.7661 44.9379 58.7658 44.938C58.7651 44.9383 58.7645 44.9386 58.7639 44.9388C58.7627 44.9394 58.7615 44.9399 58.7603 44.9404C58.7579 44.9414 58.7556 44.9424 58.7533 44.9433C58.7487 44.9452 58.7442 44.9469 58.74 44.9484C58.7316 44.9515 58.7239 44.954 58.7171 44.9561C58.7036 44.9601 58.6936 44.9623 58.6879 44.9633C58.6768 44.9654 58.6821 44.9632 58.7091 44.9632V43.9632C58.6303 43.9632 58.5639 43.9694 58.5075 43.9797C58.4792 43.9849 58.4532 43.9912 58.4293 43.9984C58.4173 44.002 58.4059 44.0058 58.395 44.0098C58.3895 44.0118 58.3842 44.0139 58.379 44.016C58.3764 44.017 58.3738 44.0181 58.3712 44.0192C58.37 44.0197 58.3687 44.0203 58.3675 44.0208C58.3668 44.0211 58.3662 44.0213 58.3656 44.0216C58.3653 44.0218 58.365 44.0219 58.3647 44.022C58.3645 44.0221 58.3643 44.0222 58.3642 44.0222C58.364 44.0223 58.3637 44.0224 58.5657 44.4798ZM58.8716 45.0921C58.897 45.0102 58.9265 44.9154 58.9544 44.8354C58.9685 44.795 58.9797 44.7657 58.9875 44.7474C58.9914 44.7381 58.9922 44.7371 58.9899 44.7415C58.9886 44.7439 58.9851 44.7505 58.9793 44.7596C58.974 44.7678 58.9629 44.7846 58.9456 44.8049L58.1858 44.1547C58.1185 44.2334 58.0795 44.3272 58.0677 44.3549C58.0471 44.4032 58.0274 44.4567 58.0102 44.506C57.9756 44.6053 57.9409 44.7172 57.9165 44.7956L58.8716 45.0921ZM58.8668 45.1075L58.8716 45.0921L57.9165 44.7956L57.9118 44.811L58.8668 45.1075ZM56.2728 47.2866C57.205 47.2866 57.8279 46.9049 58.2307 46.4117C58.6123 45.9443 58.777 45.3981 58.867 45.1069L57.9116 44.8115C57.8182 45.1137 57.6994 45.4812 57.4561 45.7792C57.2339 46.0513 56.8902 46.2866 56.2728 46.2866V47.2866ZM53.4052 45.5463C53.8791 46.1856 54.6727 47.2866 56.2728 47.2866V46.2866C55.2215 46.2866 54.6981 45.6113 54.2085 44.9508L53.4052 45.5463ZM53.4018 45.5418L53.4052 45.5464L54.2084 44.9507L54.205 44.9461L53.4018 45.5418ZM52.8415 44.9632C52.8841 44.9632 52.8991 44.9682 52.9036 44.9698C52.9079 44.9713 52.9245 44.9775 52.9596 45.0068C53.0471 45.0799 53.1687 45.2244 53.4005 45.54L54.2064 44.948C53.9866 44.6488 53.7966 44.403 53.6007 44.2393C53.3657 44.0431 53.1236 43.9632 52.8415 43.9632V44.9632ZM52.2813 45.5393C52.5149 45.2243 52.6364 45.0799 52.7243 45.0066C52.7594 44.9772 52.7759 44.9712 52.7799 44.9697C52.7842 44.9682 52.799 44.9632 52.8415 44.9632V43.9632C52.5592 43.9632 52.3178 44.0432 52.0834 44.2389C51.8884 44.4017 51.6983 44.6465 51.478 44.9438L52.2813 45.5393ZM52.2779 45.544L52.2812 45.5394L51.4781 44.9437L51.4747 44.9482L52.2779 45.544ZM49.408 47.2842C51.0102 47.2842 51.8038 46.1834 52.278 45.5439L51.4747 44.9483C50.9852 45.6085 50.4617 46.2842 49.408 46.2842V47.2842ZM46.5404 45.5439C47.0143 46.1832 47.808 47.2842 49.408 47.2842V46.2842C48.3567 46.2842 47.8334 45.6088 47.3437 44.9484L46.5404 45.5439ZM46.5368 45.5391L46.5402 45.5437L47.3438 44.9486L47.3405 44.944L46.5368 45.5391ZM45.9768 44.9632C46.0193 44.9632 46.0344 44.9682 46.0391 44.9698C46.0435 44.9714 46.0602 44.9776 46.0953 45.0069C46.1828 45.0798 46.3044 45.224 46.5362 45.5383L47.341 44.9448C47.1213 44.6469 46.9313 44.4018 46.7354 44.2386C46.5006 44.043 46.2588 43.9632 45.9768 43.9632V44.9632ZM45.4171 45.541C45.6501 45.2254 45.7725 45.0803 45.8605 45.0068C45.8959 44.9772 45.9126 44.971 45.9167 44.9696C45.9208 44.9681 45.9352 44.9632 45.9768 44.9632V43.9632C45.6949 43.9632 45.4536 44.0437 45.2194 44.2394C45.024 44.4026 44.8335 44.6479 44.6127 44.947L45.4171 45.541ZM42.5456 47.2866C44.1491 47.2866 44.9449 46.181 45.4172 45.5408L44.6125 44.9471C44.1254 45.6075 43.5995 46.2866 42.5456 46.2866V47.2866ZM39.6756 45.5463C40.1498 46.1859 40.9434 47.2866 42.5456 47.2866V46.2866C41.4918 46.2866 40.9684 45.611 40.4789 44.9508L39.6756 45.5463ZM39.6723 45.5418L39.6757 45.5464L40.4789 44.9507L40.4755 44.9461L39.6723 45.5418ZM39.112 44.9656C39.1545 44.9656 39.1697 44.9706 39.1743 44.9723C39.1787 44.9738 39.1954 44.9801 39.2305 45.0093C39.3181 45.0823 39.4396 45.2264 39.6715 45.5408L40.4763 44.9472C40.2566 44.6493 40.0665 44.4042 39.8707 44.2411C39.6359 44.0454 39.394 43.9656 39.112 43.9656V44.9656ZM38.5518 45.5417C38.7853 45.2267 38.9069 45.0823 38.9947 45.009C39.0299 44.9796 39.0464 44.9736 39.0504 44.9721C39.0546 44.9706 39.0695 44.9656 39.112 44.9656V43.9656C38.8296 43.9656 38.5882 44.0457 38.3538 44.2414C38.1589 44.4042 37.9688 44.649 37.7484 44.9462L38.5518 45.5417ZM35.6808 47.2866C37.2868 47.2866 38.0803 46.1807 38.5525 45.5408L37.7478 44.9471C37.2604 45.6078 36.7369 46.2866 35.6808 46.2866V47.2866ZM32.8132 45.5463C33.2871 46.1856 34.0808 47.2866 35.6808 47.2866V46.2866C34.6295 46.2866 34.1062 45.6113 33.6165 44.9508L32.8132 45.5463ZM32.8098 45.5418L32.8132 45.5464L33.6165 44.9508L33.6131 44.9462L32.8098 45.5418ZM32.2496 44.9656C32.2921 44.9656 32.3073 44.9706 32.3119 44.9723C32.3163 44.9738 32.333 44.9801 32.3681 45.0093C32.4557 45.0823 32.5772 45.2264 32.8091 45.5408L33.6139 44.9472C33.3942 44.6493 33.2041 44.4042 33.0082 44.2411C32.7735 44.0454 32.5316 43.9656 32.2496 43.9656V44.9656ZM31.6899 45.5434C31.9229 45.2279 32.0453 45.0828 32.1333 45.0092C32.1687 44.9796 32.1854 44.9735 32.1895 44.972C32.1936 44.9705 32.208 44.9656 32.2496 44.9656V43.9656C31.9677 43.9656 31.7264 44.0461 31.4922 44.2418C31.2968 44.405 31.1063 44.6503 30.8855 44.9494L31.6899 45.5434ZM28.8184 47.2891C30.4219 47.2891 31.2177 46.1835 31.69 45.5433L30.8854 44.9496C30.3982 45.6099 29.8723 46.2891 28.8184 46.2891V47.2891ZM25.9508 45.5488C26.4247 46.188 27.2183 47.2891 28.8184 47.2891V46.2891C27.7671 46.2891 27.2437 45.6137 26.7541 44.9532L25.9508 45.5488ZM25.9474 45.5442L25.9508 45.5488L26.7541 44.9532L26.7507 44.9486L25.9474 45.5442ZM25.3872 44.968C25.4297 44.968 25.4448 44.9731 25.4494 44.9747C25.4539 44.9763 25.4706 44.9825 25.5057 45.0118C25.5932 45.0847 25.7148 45.2288 25.9466 45.5432L26.7514 44.9496C26.5317 44.6518 26.3417 44.4067 26.1458 44.2435C25.911 44.0479 25.6691 43.968 25.3872 43.968V44.968ZM24.8275 45.5459C25.0605 45.2303 25.1829 45.0852 25.2709 45.0117C25.3063 44.9821 25.323 44.9759 25.327 44.9744C25.3312 44.973 25.3456 44.968 25.3872 44.968V43.968C25.1053 43.968 24.864 44.0485 24.6297 44.2442C24.4344 44.4074 24.2439 44.6527 24.0231 44.9518L24.8275 45.5459ZM21.9559 47.2915C23.5594 47.2915 24.3553 46.1859 24.8276 45.5457L24.0229 44.952C23.5357 45.6123 23.0099 46.2915 21.9559 46.2915V47.2915ZM20.5027 46.6317C20.8702 47.0574 21.3928 47.2915 21.9559 47.2915V46.2915C21.677 46.2915 21.433 46.1791 21.2597 45.9782L20.5027 46.6317ZM20.1315 42.1619C19.9975 43.1714 19.8905 44.042 19.9068 44.7584C19.9233 45.4787 20.0646 46.1279 20.5039 46.633L21.2585 45.9769C21.0416 45.7274 20.9207 45.3561 20.9066 44.7356C20.8923 44.1111 20.9865 43.3204 21.1228 42.2936L20.1315 42.1619ZM20.1361 42.1275L20.1314 42.1628L21.123 42.2927L21.1276 42.2575L20.1361 42.1275ZM20.3291 39.83C20.3488 40.0516 20.3292 40.4268 20.2862 40.8695C20.2444 41.301 20.1845 41.7578 20.1361 42.1275L21.1276 42.2575C21.1757 41.8904 21.2378 41.4171 21.2816 40.9661C21.3242 40.5261 21.354 40.0663 21.3251 39.7414L20.3291 39.83ZM15.7312 46.4933C16.3642 45.2285 17.2924 43.7246 18.2722 42.5008C18.7622 41.8888 19.2562 41.358 19.724 40.9638C20.2007 40.562 20.6077 40.3386 20.9238 40.2763L20.7304 39.2951C20.1682 39.406 19.6047 39.7565 19.0796 40.1991C18.5454 40.6493 18.006 41.2332 17.4916 41.8758C16.4624 43.1612 15.4974 44.726 14.837 46.0457L15.7312 46.4933ZM14.4446 47.2916C14.9862 47.2916 15.4873 46.9856 15.7321 46.4914L14.8361 46.0475C14.761 46.199 14.6084 46.2916 14.4446 46.2916V47.2916ZM14.4445 47.2916H14.4446V46.2916H14.4445V47.2916ZM14.3254 47.2853C14.3806 47.2923 14.4308 47.2916 14.4445 47.2916V46.2916C14.4394 46.2916 14.4367 46.2916 14.4343 46.2916C14.4321 46.2916 14.4316 46.2915 14.4321 46.2916C14.4328 46.2916 14.4399 46.2918 14.4508 46.2932L14.3254 47.2853ZM13.0894 46.3355C13.2836 46.8799 13.7842 47.2556 14.3596 47.2884L14.4166 46.29C14.2441 46.2802 14.091 46.167 14.0312 45.9995L13.0894 46.3355ZM12.997 36.951C11.933 38.5964 11.9395 40.8395 12.1917 42.6519C12.4475 44.4903 12.9764 46.0206 13.0897 46.3362L14.031 45.9987C13.9278 45.7111 13.4243 44.2544 13.1822 42.5141C12.9364 40.7476 12.9794 38.8198 13.8367 37.494L12.997 36.951ZM16.7614 34.8771C15.1358 34.9832 13.8146 35.689 12.9972 36.9506L13.8365 37.4944C14.4584 36.5345 15.4701 35.9635 16.8265 35.875L16.7614 34.8771ZM18.3321 34.4734C18.3527 34.4227 18.3336 34.5112 18.0482 34.6285C17.7884 34.7352 17.373 34.8368 16.761 34.8772L16.8268 35.875C17.5106 35.8299 18.0395 35.7132 18.4282 35.5535C18.7913 35.4043 19.1249 35.1784 19.2584 34.85L18.3321 34.4734ZM18.1107 34.1886C18.2129 34.3055 18.2733 34.4101 18.3013 34.483C18.315 34.5189 18.3173 34.5378 18.3175 34.5401C18.3177 34.5428 18.3148 34.5158 18.3321 34.4734L19.2584 34.85C19.3651 34.5875 19.3086 34.3172 19.2351 34.1254C19.1561 33.919 19.0249 33.715 18.8637 33.5305L18.1107 34.1886ZM14.5697 33.3806C16.1783 32.9394 17.5429 33.5368 18.1102 34.188L18.8642 33.5311C18.0297 32.5733 16.2618 31.8796 14.3052 32.4162L14.5697 33.3806ZM8.74425 40.4842C9.19053 38.8416 10.0804 37.2095 11.1578 35.909C12.2431 34.599 13.4725 33.68 14.5691 33.3808L14.3059 32.416C12.9307 32.7912 11.539 33.8814 10.3878 35.271C9.22867 36.6701 8.2666 38.4281 7.77923 40.222L8.74425 40.4842ZM9.27755 44.833C8.72404 44.2597 8.50066 43.4907 8.46581 42.6794C8.43096 41.8678 8.58782 41.0622 8.74438 40.4837L7.7791 40.2225C7.60876 40.8519 7.42576 41.7681 7.46674 42.7223C7.50772 43.6767 7.77584 44.7173 8.55814 45.5275L9.27755 44.833ZM9.24965 46.88C9.81631 46.3226 9.83038 45.409 9.27858 44.834L8.55711 45.5265C8.72964 45.7062 8.7249 45.9934 8.54841 46.167L9.24965 46.88ZM7.20837 46.8519C7.76606 47.4292 8.67683 47.4398 9.24852 46.8811L8.54954 46.1659C8.37338 46.3381 8.09894 46.3345 7.92759 46.1571L7.20837 46.8519ZM5.96367 39.7214C5.18555 42.5867 5.56978 45.1563 7.20843 46.852L7.92753 46.157C6.6171 44.801 6.20644 42.6431 6.92872 39.9835L5.96367 39.7214ZM13.8143 30.5842C11.9466 31.0933 10.2324 32.4805 8.87525 34.156C7.51344 35.8372 6.46876 37.8599 5.96365 39.7215L6.92875 39.9834C7.39473 38.266 8.37133 36.3669 9.65231 34.7855C10.9379 33.1984 12.488 31.9822 14.0773 31.549L13.8143 30.5842ZM20.2774 32.2785C19.0425 30.8606 16.576 29.8309 13.8142 30.5842L14.0774 31.549C16.4659 30.8975 18.5382 31.8042 19.5233 32.9353L20.2774 32.2785ZM20.9979 35.5783C21.4514 34.474 21.1381 33.264 20.2769 32.278L19.5238 32.9358C20.2006 33.7107 20.3483 34.5275 20.0728 35.1984L20.9979 35.5783ZM16.9489 37.7716C18.2171 37.6882 19.1289 37.3934 19.7798 36.9831C20.4362 36.5694 20.8021 36.054 20.9977 35.5786L20.073 35.198C19.9511 35.494 19.7161 35.8412 19.2466 36.1371C18.7716 36.4365 18.0325 36.6982 16.8832 36.7738L16.9489 37.7716ZM15.4141 38.5345C15.7001 38.0938 16.163 37.8234 16.9489 37.7716L16.8832 36.7738C15.8677 36.8407 15.0747 37.2205 14.5753 37.9902L15.4141 38.5345ZM15.235 43.2892C15.0593 42.4433 14.9301 41.5051 14.9379 40.6407C14.9458 39.7642 15.0944 39.0286 15.4145 38.534L14.5749 37.9907C14.1025 38.7207 13.9465 39.6831 13.9379 40.6317C13.9293 41.5922 14.0717 42.6061 14.2559 43.4926L15.235 43.2892ZM21.212 37.3662C19.7158 37.3191 18.3265 38.2567 17.1868 39.3859C16.03 40.5322 15.0339 41.9719 14.32 43.1282L15.1709 43.6536C15.868 42.5245 16.8157 41.1614 17.8907 40.0963C18.9828 39.0143 20.1134 38.3321 21.1806 38.3657L21.212 37.3662ZM22.6314 38.0559C22.2752 37.629 21.7669 37.3853 21.2135 37.3663L21.1791 38.3657C21.4535 38.3751 21.6931 38.4922 21.8636 38.6966L22.6314 38.0559ZM23.1851 39.5519C23.1329 38.993 22.9834 38.4745 22.6302 38.0544L21.8648 38.698C22.0384 38.9044 22.1476 39.1976 22.1894 39.645L23.1851 39.5519ZM31.8791 36.2934C26.8274 36.8081 24.2199 37.9738 22.4096 39.1826L22.9649 40.0142C24.6163 38.9116 27.061 37.7894 31.9805 37.2883L31.8791 36.2934ZM36.7632 1.38786C36.243 2.00658 25.9882 14.6045 31.4441 36.9097L32.4155 36.6721C27.0625 14.7876 37.127 2.50912 37.5287 2.0314L36.7632 1.38786ZM36.8456 1.30882C36.8436 1.31039 36.8179 1.33029 36.7908 1.35766L37.5011 2.0616C37.4908 2.07202 37.4818 2.07991 37.476 2.08487C37.471 2.08914 37.4668 2.09241 37.4696 2.09024L36.8456 1.30882ZM36.7705 1.38764C36.792 1.35875 36.8129 1.33778 36.8274 1.3245C36.8396 1.31334 36.8505 1.3049 36.8456 1.30883L37.4696 2.09024C37.4699 2.08999 37.4858 2.07749 37.5028 2.06194C37.5221 2.04427 37.5475 2.01858 37.5731 1.98415L36.7705 1.38764ZM36.9342 1.22259C36.8934 1.25736 36.8491 1.29792 36.8029 1.34844L37.5408 2.02335C37.551 2.01217 37.5631 2.00051 37.5835 1.98308L36.9342 1.22259ZM37.0385 1.13814C36.9813 1.17661 36.937 1.21728 36.9037 1.25089L37.614 1.95477C37.6183 1.95042 37.6116 1.95786 37.5967 1.96785L37.0385 1.13814ZM37.1604 1.06454C37.1327 1.08014 37.0866 1.1058 37.0385 1.13813L37.5967 1.96786C37.6065 1.9613 37.6181 1.95445 37.6508 1.93608L37.1604 1.06454ZM37.1801 1.05347L37.1599 1.06486L37.6513 1.93576L37.6715 1.92437L37.1801 1.05347ZM37.28 0.999475C37.2216 1.02568 37.1738 1.05673 37.1591 1.06601L37.6925 1.91182C37.6976 1.90865 37.7003 1.90691 37.7028 1.90538C37.7051 1.904 37.7058 1.90359 37.7055 1.90374C37.705 1.90403 37.699 1.90751 37.6892 1.91191L37.28 0.999475ZM37.4987 0.925788C37.432 0.942619 37.3621 0.964495 37.2891 0.995508L37.6801 1.91587C37.6965 1.90891 37.716 1.90231 37.7433 1.89541L37.4987 0.925788ZM37.4945 0.92773C37.4872 0.930194 37.4921 0.928447 37.4989 0.92648C37.5068 0.924225 37.5249 0.919277 37.5497 0.915715L37.6923 1.90548C37.7563 1.89626 37.8111 1.87629 37.8133 1.87554L37.4945 0.92773ZM37.4904 0.929122L37.4904 0.929136L37.8175 1.87413L37.8175 1.87412L37.4904 0.929122ZM37.5319 0.915918C37.5141 0.921044 37.4982 0.926477 37.4946 0.927701L37.8133 1.87554C37.8165 1.87447 37.8167 1.87442 37.8164 1.87451C37.8159 1.87468 37.8131 1.87559 37.8089 1.8768L37.5319 0.915918ZM37.8679 0.875C37.7647 0.875 37.6621 0.885805 37.561 0.908479L37.7798 1.88424C37.8057 1.87843 37.8348 1.875 37.8679 1.875V0.875ZM38.0238 0.880038L37.885 0.875292L37.8508 1.87471L37.9896 1.87945L38.0238 0.880038ZM39.1074 1.3935C38.8331 1.06575 38.4314 0.879746 38.0067 0.879746V1.87975C38.137 1.87975 38.2573 1.93582 38.3405 2.03525L39.1074 1.3935ZM44.4731 36.7398C49.8316 14.5423 39.6269 2.00841 39.1059 1.3917L38.342 2.03705C38.7428 2.5115 48.7583 14.7268 43.5011 36.5051L44.4731 36.7398ZM60.1133 43.1469C60.0531 42.9233 59.5495 41.3617 57.2774 39.7575C55.0119 38.158 51.0189 36.5376 44.0166 36.1233L43.9576 37.1216C50.835 37.5284 54.6308 39.113 56.7006 40.5744C58.7639 42.0311 59.1421 43.3862 59.1478 43.407L60.1133 43.1469ZM60.1271 43.2153C60.1254 43.2031 60.1221 43.1819 60.1158 43.1566L59.1452 43.3973C59.1402 43.3768 59.1378 43.3608 59.1368 43.3539L60.1271 43.2153ZM60.1299 43.2375C60.1297 43.2362 60.1287 43.2265 60.1272 43.2158L59.1367 43.3534C59.1362 43.3501 59.136 43.3477 59.1359 43.3468C59.1358 43.3461 59.1357 43.3457 59.1359 43.3473L60.1299 43.2375ZM60.1206 43.1877C60.1255 43.2077 60.1279 43.2233 60.1289 43.2301C60.1298 43.2366 60.1303 43.2417 60.1299 43.2377L59.1359 43.3471C59.136 43.3485 59.1371 43.3589 59.1388 43.3705C59.1405 43.3826 59.1438 43.4032 59.1499 43.428L60.1206 43.1877ZM60.1436 43.325L60.1295 43.2325L59.141 43.3832L59.1551 43.4757L60.1436 43.325ZM60.1588 43.5001C60.1588 43.4257 60.1483 43.3574 60.1444 43.3303L59.1543 43.4705C59.1555 43.4791 59.1564 43.4853 59.1572 43.4911C59.1579 43.4966 59.1583 43.5004 59.1586 43.503C59.1592 43.5085 59.1588 43.5066 59.1588 43.5001H60.1588ZM60.1586 43.4862L60.1584 43.4813L59.1591 43.5188L59.1593 43.5237L60.1586 43.4862ZM60.1562 43.453C60.1559 43.4509 60.1561 43.4525 60.1564 43.4547C60.1566 43.4573 60.1572 43.4626 60.1577 43.4696L59.1602 43.5403C59.1615 43.5586 59.1636 43.5747 59.1637 43.5756L60.1562 43.453ZM60.1587 43.4758C60.1576 43.4642 60.1563 43.454 60.1562 43.453L59.1637 43.5756C59.1639 43.5772 59.1638 43.5764 59.1637 43.5754C59.1635 43.5741 59.1632 43.5712 59.1628 43.5673L60.1587 43.4758ZM60.1611 43.5285C60.1611 43.5064 60.1598 43.4879 60.1586 43.4752L59.1629 43.5678C59.1622 43.5598 59.1611 43.546 59.1611 43.5285H60.1611ZM60.1591 43.5832C60.1603 43.5672 60.1611 43.5489 60.1611 43.5285H59.1611C59.1611 43.5208 59.1614 43.5147 59.1617 43.5107L60.1591 43.5832ZM60.1532 43.6397C60.1543 43.6313 60.1573 43.6085 60.1591 43.5831L59.1617 43.5107C59.162 43.5074 59.1622 43.5055 59.1621 43.5063C59.162 43.5076 59.1617 43.5094 59.161 43.5152L60.1532 43.6397ZM60.1526 43.6451L60.1533 43.6394L59.161 43.5155L59.1603 43.5212L60.1526 43.6451ZM60.1549 43.6219L60.1552 43.6185L59.1577 43.5478L59.1574 43.5512L60.1549 43.6219ZM60.1337 43.789C60.149 43.7171 60.1531 43.6475 60.1549 43.6217L59.1574 43.5513C59.1568 43.5597 59.1564 43.5657 59.1559 43.5715C59.1555 43.5771 59.1551 43.5809 59.1548 43.5837C59.1542 43.5899 59.1541 43.588 59.1556 43.5813L60.1337 43.789ZM60.1112 43.8909C60.1174 43.8658 60.1295 43.818 60.138 43.7666L59.1513 43.6037C59.1504 43.6093 59.1484 43.6185 59.1405 43.6503L60.1112 43.8909ZM60.099 43.9343C60.1019 43.924 60.103 43.9199 60.1041 43.9165L59.1476 43.6247C59.1429 43.6401 59.1388 43.6547 59.1364 43.6631L60.099 43.9343ZM60.0598 44.0516C60.081 44.0001 60.0944 43.9504 60.099 43.9342L59.1364 43.6632C59.1348 43.6688 59.1338 43.6724 59.1329 43.6756C59.132 43.6787 59.1315 43.6803 59.1313 43.681C59.1308 43.6825 59.1322 43.6779 59.1355 43.67L60.0598 44.0516ZM41.2398 39.0462H38.8081V40.0462H41.2398V39.0462ZM38.3758 5.48053C41.0722 10.1196 46.0674 21.89 40.7613 39.4012L41.7183 39.6912C47.1225 21.8563 42.0424 9.79881 39.2404 4.97802L38.3758 5.48053ZM39.3081 39.5462V5.22928H38.3081V39.5462H39.3081ZM37.4268 39.5462V5.47837H36.4268V39.5462H37.4268ZM34.6338 40.0462H36.9268V39.0462H34.6338V40.0462ZM36.4915 5.23231C33.6699 10.2236 28.8557 22.2032 34.1553 39.6912L35.1123 39.4012C29.9091 22.2309 34.643 10.5342 37.362 5.72443L36.4915 5.23231ZM56.1263 44.2561L56.1215 44.2716L57.0766 44.5678L57.0814 44.5523L56.1263 44.2561ZM56.6682 44.9L56.6689 44.8999L56.5388 43.9085L56.538 43.9086L56.6682 44.9ZM57.0334 42.6797C56.454 43.1931 56.2343 43.9059 56.1256 44.256L57.0806 44.5526C57.193 44.1906 57.3494 43.7358 57.6967 43.4281L57.0334 42.6797ZM43.4759 38.999C52.9292 39.4906 56.0511 42.1878 56.9715 43.3623L57.7586 42.7455C56.5959 41.2619 53.1471 38.5006 43.5278 38.0003L43.4759 38.999ZM43.3036 40.9381C43.5503 40.158 43.7755 39.3901 43.9839 38.6322L43.0197 38.367C42.8143 39.1138 42.5927 39.8696 42.3501 40.6367L43.3036 40.9381ZM41.9309 41.9495C42.5619 41.9495 43.1143 41.5365 43.3036 40.9383L42.3502 40.6365C42.2902 40.8262 42.1183 40.9495 41.9309 40.9495V41.9495ZM33.94 41.9495H41.9309V40.9495H33.94V41.9495ZM32.5673 40.9382C32.7566 41.5366 33.309 41.9495 33.94 41.9495V40.9495C33.7525 40.9495 33.5807 40.8262 33.5207 40.6366L32.5673 40.9382ZM31.9344 38.7905C32.1307 39.4945 32.3391 40.2092 32.5668 40.9368L33.5212 40.6381C33.2973 39.9227 33.0918 39.2182 32.8977 38.522L31.9344 38.7905ZM22.8605 42.4464C23.6731 41.8119 24.5853 41.1386 26.0265 40.5482C27.4734 39.9555 29.4755 39.4378 32.4633 39.154L32.3688 38.1585C29.3102 38.449 27.2073 38.9838 25.6475 39.6228C24.082 40.2642 23.0858 41.0018 22.2451 41.6583L22.8605 42.4464ZM23.0275 42.2816C23.0346 42.2257 23.0414 42.1718 23.0485 42.1178L22.0571 41.9869C22.0496 42.044 22.0424 42.1006 22.0354 42.1561L23.0275 42.2816ZM22.9916 42.5557C23.005 42.4594 23.0165 42.3682 23.0275 42.2816L22.0354 42.1561C22.0243 42.2435 22.0136 42.3286 22.0012 42.4176L22.9916 42.5557ZM22.7912 44.7924C22.7658 44.2799 22.8972 43.2686 22.992 42.5522L22.0007 42.421C21.9121 43.0906 21.7613 44.2152 21.7924 44.8419L22.7912 44.7924ZM22.5166 43.8259C22.219 44.2314 22.1039 44.3471 22.0363 44.3873L22.5472 45.247C22.823 45.0831 23.056 44.7811 23.3228 44.4177L22.5166 43.8259ZM22.5213 43.8196L22.518 43.8241L23.3214 44.4195L23.3248 44.4149L22.5213 43.8196ZM25.3914 42.0792C23.7892 42.0792 22.9956 43.1799 22.5214 43.8195L23.3247 44.4151C23.8142 43.7549 24.3376 43.0792 25.3914 43.0792V42.0792ZM28.259 43.8194C27.785 43.1802 26.9914 42.0792 25.3914 42.0792V43.0792C26.4426 43.0792 26.966 43.7545 27.4557 44.415L28.259 43.8194ZM28.2623 43.824L28.2589 43.8194L27.4557 44.4151L27.4591 44.4197L28.2623 43.824ZM28.8226 44.4002C28.7801 44.4002 28.7649 44.3952 28.7603 44.3935C28.7559 44.392 28.7392 44.3857 28.7041 44.3565C28.6165 44.2835 28.495 44.1394 28.2631 43.825L27.4583 44.4186C27.678 44.7165 27.8681 44.9616 28.0639 45.1247C28.2987 45.3204 28.5406 45.4002 28.8226 45.4002V44.4002ZM29.3828 43.8241C29.1493 44.1391 29.0277 44.2835 28.9399 44.3568C28.9047 44.3862 28.8882 44.3922 28.8842 44.3937C28.88 44.3952 28.8651 44.4002 28.8226 44.4002V45.4002C29.105 45.4002 29.3464 45.3201 29.5808 45.1244C29.7757 44.9616 29.9658 44.7168 30.1861 44.4196L29.3828 43.8241ZM29.3861 43.8196L29.3827 43.8241L30.1862 44.4195L30.1896 44.4149L29.3861 43.8196ZM32.2561 42.0792C30.654 42.0792 29.8603 43.1799 29.3862 43.8195L30.1895 44.4151C30.6789 43.7549 31.2024 43.0792 32.2561 43.0792V42.0792ZM35.1237 43.8194C34.6498 43.1802 33.8562 42.0792 32.2561 42.0792V43.0792C33.3074 43.0792 33.8308 43.7545 34.3204 44.415L35.1237 43.8194ZM35.1271 43.824L35.1237 43.8194L34.3205 44.4151L34.3239 44.4197L35.1271 43.824ZM35.6874 44.4002C35.6458 44.4002 35.6313 44.3953 35.627 44.3937C35.6228 44.3922 35.606 44.386 35.5706 44.3565C35.4825 44.2831 35.3602 44.1384 35.1271 43.824L34.3238 44.4196C34.5446 44.7174 34.7351 44.962 34.9305 45.1247C35.1645 45.3198 35.4056 45.4002 35.6874 45.4002V44.4002ZM36.2476 43.8241C36.014 44.1391 35.8925 44.2835 35.8046 44.3568C35.7695 44.3862 35.753 44.3922 35.7489 44.3937C35.7447 44.3952 35.7299 44.4002 35.6874 44.4002V45.4002C35.9697 45.4002 36.2111 45.3201 36.4455 45.1244C36.6405 44.9616 36.8305 44.7168 37.0509 44.4196L36.2476 43.8241ZM39.1186 42.0792C37.5126 42.0792 36.719 43.1851 36.2469 43.825L37.0516 44.4187C37.539 43.758 38.0625 43.0792 39.1186 43.0792V42.0792ZM41.9862 43.8194C41.5122 43.1802 40.7186 42.0792 39.1186 42.0792V43.0792C40.1698 43.0792 40.6932 43.7545 41.1828 44.415L41.9862 43.8194ZM41.9897 43.8242L41.9863 43.8196L41.1827 44.4148L41.1861 44.4194L41.9897 43.8242ZM42.5521 44.4026C42.5096 44.4026 42.4945 44.3976 42.4899 44.396C42.4855 44.3944 42.4687 44.3882 42.4334 44.3587C42.3454 44.2853 42.2232 44.1405 41.9901 43.8248L41.1857 44.4188C41.4065 44.7179 41.5971 44.9634 41.7931 45.1268C42.0281 45.3227 42.27 45.4026 42.5521 45.4026V44.4026ZM43.1123 43.8265C42.8788 44.1415 42.7572 44.2859 42.6694 44.3592C42.6342 44.3886 42.6178 44.3946 42.6137 44.3961C42.6095 44.3976 42.5946 44.4026 42.5521 44.4026V45.4026C42.8345 45.4026 43.0759 45.3226 43.3103 45.1269C43.5053 44.9641 43.6953 44.7193 43.9157 44.422L43.1123 43.8265ZM43.1157 43.8219L43.1124 43.8265L43.9157 44.422L43.919 44.4175L43.1157 43.8219ZM45.9857 42.0816C44.3835 42.0816 43.5899 43.1824 43.1157 43.8219L43.919 44.4175C44.4085 43.7573 44.9319 43.0816 45.9857 43.0816V42.0816ZM48.8533 43.8219C48.3793 43.1826 47.5857 42.0816 45.9857 42.0816V43.0816C47.037 43.0816 47.5603 43.757 48.05 44.4174L48.8533 43.8219ZM48.8566 43.8264L48.8532 43.8218L48.05 44.4175L48.0534 44.4221L48.8566 43.8264ZM49.4169 44.4026C49.3744 44.4026 49.3592 44.3976 49.3546 44.396C49.3502 44.3944 49.3335 44.3882 49.2984 44.3589C49.2108 44.286 49.0893 44.1418 48.8574 43.8275L48.0526 44.421C48.2723 44.7189 48.4624 44.964 48.6582 45.1272C48.893 45.3228 49.1349 45.4026 49.4169 45.4026V44.4026ZM49.9789 43.8248C49.7458 44.1404 49.6236 44.2853 49.5356 44.3587C49.5003 44.3881 49.4835 44.3944 49.4791 44.396C49.4745 44.3976 49.4594 44.4026 49.4169 44.4026V45.4026C49.6991 45.4026 49.941 45.3227 50.176 45.1268C50.3719 44.9634 50.5625 44.7178 50.7833 44.4188L49.9789 43.8248ZM52.8505 42.0792C51.247 42.0792 50.4511 43.1848 49.9788 43.825L50.7835 44.4187C51.2707 43.7583 51.7965 43.0792 52.8505 43.0792V42.0792ZM55.7204 43.8195C55.2462 43.1799 54.4527 42.0792 52.8505 42.0792V43.0792C53.9042 43.0792 54.4276 43.7548 54.9171 44.415L55.7204 43.8195ZM55.7237 43.824L55.7203 43.8194L54.9171 44.4151L54.9205 44.4197L55.7237 43.824ZM56.284 44.4002C56.2425 44.4002 56.2279 44.3953 56.2237 44.3937C56.2195 44.3922 56.2027 44.386 56.1673 44.3565C56.0792 44.2831 55.9569 44.1384 55.7238 43.824L54.9205 44.4196C55.1413 44.7174 55.3318 44.962 55.5271 45.1247C55.7612 45.3198 56.0023 45.4002 56.284 45.4002V44.4002ZM56.4275 44.8836C56.2255 44.4262 56.2257 44.4261 56.226 44.426C56.226 44.426 56.2263 44.4259 56.2264 44.4258C56.2267 44.4257 56.227 44.4255 56.2274 44.4254C56.228 44.4251 56.2286 44.4249 56.2292 44.4246C56.2304 44.4241 56.2316 44.4235 56.2328 44.423C56.2352 44.422 56.2375 44.4211 56.2398 44.4201C56.2444 44.4183 56.2489 44.4166 56.2531 44.415C56.2616 44.4119 56.2692 44.4094 56.276 44.4074C56.2895 44.4033 56.2995 44.4012 56.3052 44.4001C56.3163 44.3981 56.3111 44.4002 56.284 44.4002V45.4002C56.3628 45.4002 56.4292 45.394 56.4857 45.3837C56.514 45.3785 56.54 45.3722 56.5639 45.365C56.5758 45.3614 56.5873 45.3576 56.5982 45.3536C56.6037 45.3516 56.609 45.3495 56.6142 45.3474C56.6168 45.3464 56.6194 45.3453 56.6219 45.3442C56.6232 45.3437 56.6244 45.3432 56.6257 45.3426C56.6263 45.3424 56.6269 45.3421 56.6276 45.3418C56.6279 45.3417 56.6282 45.3415 56.6285 45.3414C56.6287 45.3413 56.6289 45.3412 56.629 45.3412C56.6292 45.3411 56.6294 45.341 56.4275 44.8836ZM56.1215 44.2714C56.0961 44.3533 56.0666 44.4481 56.0387 44.5281C56.0247 44.5684 56.0135 44.5978 56.0056 44.6161C56.0017 44.6253 56.0009 44.6263 56.0033 44.6219C56.0045 44.6195 56.0081 44.613 56.0138 44.6039C56.0191 44.5956 56.0302 44.5788 56.0476 44.5585L56.8073 45.2087C56.8747 45.13 56.9136 45.0363 56.9254 45.0086C56.946 44.9602 56.9657 44.9068 56.9829 44.8575C57.0175 44.7582 57.0522 44.6464 57.0766 44.5679L56.1215 44.2714Z" fill="#222532"/>
<path d="M7.28833 31.1354C7.16839 30.9907 6.0772 29.7305 4.68029 29.7305C4.03358 29.7305 3.10932 29.9986 2.38266 31.2731L1.57129 32.6971H8.59108L7.28833 31.1354Z" fill="white" stroke="#222532"/>
<path fill-rule="evenodd" clip-rule="evenodd" d="M5.46384 34.5742L6.43042 34.6762L6.30817 35.6492C5.95302 38.2788 3.20622 41.0531 3.08864 41.1718L1.81634 42.4438L1.50121 40.6639C1.12728 38.5707 1.39302 36.9616 2.28904 35.8818C3.54249 34.3701 5.46384 34.5742 5.46384 34.5742ZM3.73533 37.0993C3.56835 37.2987 3.44371 37.5526 3.3567 37.8516L3.35671 37.8517C3.5566 37.5503 3.74944 37.2346 3.91406 36.9166C3.85291 36.9712 3.79177 37.0305 3.73533 37.0993Z" fill="white"/>
<path d="M6.43042 34.6762L6.92652 34.7385L6.9901 34.2325L6.48292 34.179L6.43042 34.6762ZM5.46384 34.5742L5.41103 35.0714L5.41135 35.0714L5.46384 34.5742ZM6.30817 35.6492L6.80369 35.7162L6.80427 35.7116L6.30817 35.6492ZM3.08864 41.1718L3.44216 41.5253L3.4438 41.5237L3.08864 41.1718ZM1.81634 42.4438L1.324 42.531L1.49129 43.4759L2.16987 42.7974L1.81634 42.4438ZM1.50121 40.6639L1.99355 40.5767L1.99342 40.576L1.50121 40.6639ZM2.28904 35.8818L2.67382 36.2011L2.67394 36.2009L2.28904 35.8818ZM3.3567 37.8516L2.87661 37.7119L2.82251 37.8979L2.90774 38.0717L3.3567 37.8516ZM3.73533 37.0993L4.11866 37.4204L4.12195 37.4164L3.73533 37.0993ZM3.35671 37.8517L2.90775 38.0717L3.29151 38.8546L3.77339 38.128L3.35671 37.8517ZM3.91406 36.9166L4.3581 37.1464L3.58111 36.5436L3.91406 36.9166ZM6.48292 34.179L5.51634 34.0769L5.41135 35.0714L6.37792 35.1735L6.48292 34.179ZM6.80427 35.7116L6.92652 34.7385L5.93432 34.6139L5.81207 35.5869L6.80427 35.7116ZM3.4438 41.5237C3.51087 41.456 4.24753 40.7116 5.01526 39.644C5.77355 38.5895 6.60918 37.1562 6.80367 35.7162L5.81267 35.5823C5.65201 36.7718 4.93667 38.0404 4.20338 39.0602C3.47952 40.0668 2.78398 40.7688 2.73347 40.8198L3.4438 41.5237ZM2.16987 42.7974L3.44216 41.5253L2.73511 40.8182L1.46282 42.0903L2.16987 42.7974ZM1.00887 40.7511L1.324 42.531L2.30869 42.3567L1.99355 40.5767L1.00887 40.7511ZM1.90426 35.5625C0.874425 36.8036 0.622631 38.589 1.009 40.7518L1.99342 40.576C1.63193 38.5524 1.91162 37.1196 2.67382 36.2011L1.90426 35.5625ZM5.46384 34.5742C5.51666 34.077 5.51645 34.0769 5.51623 34.0769C5.51614 34.0769 5.51591 34.0769 5.51575 34.0769C5.51541 34.0768 5.51505 34.0768 5.51466 34.0768C5.51387 34.0767 5.51296 34.0766 5.51194 34.0765C5.50989 34.0763 5.50736 34.076 5.50438 34.0758C5.49841 34.0752 5.49058 34.0745 5.48099 34.0738C5.4618 34.0723 5.43549 34.0705 5.40271 34.0689C5.3372 34.0658 5.24549 34.0635 5.13282 34.066C4.90812 34.0711 4.59631 34.0954 4.24067 34.1724C3.5301 34.3263 2.62262 34.6961 1.90414 35.5627L2.67394 36.2009C3.20891 35.5557 3.88883 35.2718 4.4523 35.1498C4.73368 35.0888 4.98055 35.0697 5.15528 35.0658C5.24232 35.0638 5.3105 35.0657 5.35496 35.0678C5.37717 35.0688 5.39336 35.07 5.40293 35.0707C5.40771 35.0711 5.41083 35.0714 5.41221 35.0715C5.4129 35.0716 5.41315 35.0716 5.41296 35.0716C5.41286 35.0716 5.41265 35.0715 5.41233 35.0715C5.41217 35.0715 5.41198 35.0715 5.41176 35.0714C5.41165 35.0714 5.41147 35.0714 5.41142 35.0714C5.41122 35.0714 5.41103 35.0714 5.46384 34.5742ZM3.83679 37.9913C3.9098 37.7404 4.00697 37.5537 4.11864 37.4204L3.35202 36.7783C3.12973 37.0437 2.97763 37.3648 2.87661 37.7119L3.83679 37.9913ZM3.80567 37.6316L3.80566 37.6316L2.90774 38.0717L2.90775 38.0717L3.80567 37.6316ZM3.47003 36.6867C3.31612 36.984 3.13341 37.2837 2.94002 37.5753L3.77339 38.128C3.97979 37.8168 4.18277 37.4851 4.3581 37.1464L3.47003 36.6867ZM4.12195 37.4164C4.15577 37.3751 4.19615 37.335 4.24702 37.2896L3.58111 36.5436C3.50967 36.6073 3.42777 36.6858 3.34871 36.7823L4.12195 37.4164Z" fill="#222532"/>
<path fill-rule="evenodd" clip-rule="evenodd" d="M12.7066 29.291C12.7066 30.283 11.9047 31.0899 10.9217 31.0899C9.93864 31.0899 9.13907 30.283 9.13907 29.291C9.13907 28.299 9.93864 27.4921 10.9217 27.4921C11.907 27.4921 12.7066 28.299 12.7066 29.291ZM11.0204 29.2909C11.0204 29.2364 10.9757 29.1913 10.9217 29.1913C10.8676 29.1913 10.8252 29.2364 10.8252 29.2909C10.8252 29.4001 11.0204 29.4001 11.0204 29.2909Z" fill="white"/>
<path d="M10.9217 31.5899C12.1842 31.5899 13.2066 30.5557 13.2066 29.291H12.2066C12.2066 30.0103 11.6251 30.5899 10.9217 30.5899V31.5899ZM8.63907 29.291C8.63907 30.5548 9.65821 31.5899 10.9217 31.5899V30.5899C10.2191 30.5899 9.63907 30.0111 9.63907 29.291H8.63907ZM10.9217 26.9921C9.65821 26.9921 8.63907 28.0271 8.63907 29.291H9.63907C9.63907 28.5708 10.2191 27.9921 10.9217 27.9921V26.9921ZM13.2066 29.291C13.2066 28.0267 12.187 26.9921 10.9217 26.9921V27.9921C11.627 27.9921 12.2066 28.5712 12.2066 29.291H13.2066ZM10.9217 29.6913C10.6953 29.6913 10.5204 29.5082 10.5204 29.2909H11.5204C11.5204 28.9645 11.2562 28.6913 10.9217 28.6913V29.6913ZM11.3252 29.2909C11.3252 29.4923 11.1635 29.6913 10.9217 29.6913V28.6913C10.5716 28.6913 10.3252 28.9804 10.3252 29.2909H11.3252ZM10.5204 29.2909C10.5204 29.1489 10.5923 29.0252 10.691 28.9515C10.7754 28.8886 10.8619 28.8728 10.9228 28.8728C10.9837 28.8728 11.0702 28.8886 11.1546 28.9515C11.2534 29.0252 11.3252 29.1489 11.3252 29.2909H10.3252C10.3252 29.4876 10.4215 29.6523 10.5568 29.7532C10.6779 29.8434 10.8131 29.8728 10.9228 29.8728C11.0325 29.8728 11.1678 29.8434 11.2888 29.7532C11.4242 29.6523 11.5204 29.4876 11.5204 29.2909H10.5204Z" fill="#222532"/>
</svg>
