<svg width="11" height="14" viewBox="0 0 11 14" fill="none" xmlns="http://www.w3.org/2000/svg">
<path fill-rule="evenodd" clip-rule="evenodd" d="M5.43371 0.293945C6.65895 0.293945 7.84855 0.707671 8.78651 1.459V1.45897C10.0117 2.43983 10.7324 3.83447 10.8196 5.38503C10.903 6.91588 10.3309 8.41364 9.25058 9.494L5.66929 13.0285C5.53057 13.166 5.28996 13.1647 5.15123 13.0272L1.62054 9.49654C0.537732 8.41374 -0.0355973 6.91475 0.0491121 5.38506C0.135038 3.83456 0.856921 2.43992 2.08091 1.459C3.01763 0.707671 4.20849 0.293945 5.43371 0.293945ZM3.02747 5.68371C3.02747 7.01082 4.10657 8.08995 5.43371 8.08995C6.76081 8.08995 7.84117 7.01085 7.83994 5.68371C7.83994 4.35661 6.76084 3.27748 5.43371 3.27748C4.1066 3.27748 3.02747 4.35658 3.02747 5.68371Z" fill="white"/>
<path d="M5.4337 4.51086C4.78672 4.51086 4.26126 5.03632 4.26126 5.68331C4.26126 6.3303 4.78672 6.85575 5.4337 6.85575C6.08069 6.85575 6.60615 6.3303 6.60615 5.68331C6.60615 5.03632 6.08069 4.51086 5.4337 4.51086Z" fill="white"/>
</svg>
