<svg width="25" height="52" viewBox="0 0 25 52" fill="none" xmlns="http://www.w3.org/2000/svg">
<g filter="url(#filter0_d_0_2964)">
<path fill-rule="evenodd" clip-rule="evenodd" d="M5 20.584C5 7.50316 10.4217 0.445869 12.6388 0.445312C14.8563 0.445869 20.2777 7.50272 20.2777 20.584C20.2777 33.8009 15.5346 42.761 15.3333 43.136L15.1371 43.5006H10.1406L9.94444 43.136C9.74311 42.7609 5 33.8009 5 20.584ZM11.9447 2.28912V2.28905L11.9448 2.28901L11.9447 2.28912ZM11.9447 2.28912V24.0566H13.3336V2.28905C15.1113 3.87585 18.8891 9.64861 18.8891 20.5842C18.8891 24.2335 18.5054 27.5633 17.9585 30.4713C17.1547 29.3272 15.6773 27.7699 12.9848 26.2317C6.43809 22.4903 6.51764 17.353 6.52298 17.1361H6.52124C7.20353 8.41947 10.3648 3.70082 11.9447 2.28912ZM6.5248 24.2251C6.46577 23.4022 6.43105 22.5585 6.41195 21.6992C7.40505 23.5445 9.16716 25.6503 12.2953 27.4384C16.7407 29.9794 17.5018 32.4927 17.5209 32.556L17.5211 32.5566C17.1808 34.0427 16.8076 35.3917 16.4343 36.5792C15.8492 35.5427 14.818 34.2684 12.9968 33.1834C7.51236 29.9177 6.64613 25.1798 6.5248 24.2251ZM13.3335 42.1122H14.2936L14.2934 42.1119C14.5694 41.5424 15.1284 40.3236 15.7639 38.5702C15.6284 37.992 14.9792 35.9799 12.2847 34.3757C9.83516 32.9158 8.22404 31.178 7.15982 29.5495C8.29698 36.2113 10.3595 40.824 10.9845 42.1122H11.9446V37.2508H13.3335V42.1122Z" fill="white"/>
<path d="M12.6388 0.445312L12.6389 0.320312L12.6388 0.320313L12.6388 0.445312ZM15.3333 43.136L15.4433 43.1952L15.4434 43.1951L15.3333 43.136ZM15.1371 43.5006V43.6256H15.2118L15.2471 43.5598L15.1371 43.5006ZM10.1406 43.5006L10.0306 43.5598L10.0659 43.6256H10.1406V43.5006ZM9.94444 43.136L9.83431 43.1951L9.83437 43.1952L9.94444 43.136ZM11.9447 2.28905L11.9044 2.17072L11.8197 2.19955V2.28905H11.9447ZM11.9448 2.28901L12.0281 2.38223L11.9045 2.17067L11.9448 2.28901ZM11.9447 24.0566H11.8197V24.1816H11.9447V24.0566ZM13.3336 24.0566V24.1816H13.4586V24.0566H13.3336ZM13.3336 2.28905L13.4168 2.1958L13.2086 2.00993V2.28905H13.3336ZM17.9585 30.4713L17.8563 30.5431L18.0266 30.7856L18.0814 30.4944L17.9585 30.4713ZM12.9848 26.2317L12.9227 26.3402L12.9227 26.3402L12.9848 26.2317ZM6.52298 17.1361L6.64794 17.1392L6.65109 17.0111H6.52298V17.1361ZM6.52124 17.1361L6.39662 17.1264L6.38608 17.2611H6.52124V17.1361ZM6.41195 21.6992L6.52203 21.6399L6.28698 21.7019L6.41195 21.6992ZM6.5248 24.2251L6.39993 24.2341L6.4008 24.2409L6.5248 24.2251ZM12.2953 27.4384L12.2333 27.5469H12.2333L12.2953 27.4384ZM17.5209 32.556L17.4013 32.5922L17.4013 32.5924L17.5209 32.556ZM17.5211 32.5566L17.643 32.5845L17.6504 32.5521L17.6407 32.5202L17.5211 32.5566ZM16.4343 36.5792L16.3255 36.6406L16.4671 36.8916L16.5536 36.6167L16.4343 36.5792ZM12.9968 33.1834L13.0608 33.076L13.0608 33.076L12.9968 33.1834ZM14.2936 42.1122V42.2372H14.5094L14.402 42.0499L14.2936 42.1122ZM13.3335 42.1122H13.2085V42.2372H13.3335V42.1122ZM14.2934 42.1119L14.1809 42.0573L14.1521 42.1168L14.185 42.1741L14.2934 42.1119ZM15.7639 38.5702L15.8814 38.6128L15.894 38.5778L15.8856 38.5417L15.7639 38.5702ZM12.2847 34.3757L12.2207 34.4831L12.2208 34.4831L12.2847 34.3757ZM7.15982 29.5495L7.26446 29.4811L7.0366 29.5705L7.15982 29.5495ZM10.9845 42.1122L10.872 42.1667L10.9062 42.2372H10.9845V42.1122ZM11.9446 42.1122V42.2372H12.0696V42.1122H11.9446ZM11.9446 37.2508V37.1258H11.8196V37.2508H11.9446ZM13.3335 37.2508H13.4585V37.1258H13.3335V37.2508ZM12.6388 0.320313C12.3302 0.32039 11.9803 0.44241 11.6092 0.667405C11.2368 0.893272 10.8346 1.22805 10.4191 1.66678C9.58816 2.54438 8.69578 3.84693 7.8753 5.55543C6.23389 8.97334 4.875 14.0266 4.875 20.584H5.125C5.125 14.0605 6.47694 9.04475 8.10066 5.66366C8.91274 3.97267 9.79149 2.69325 10.6007 1.83867C11.0053 1.41132 11.3904 1.09245 11.7389 0.881171C12.0887 0.669016 12.3932 0.570374 12.6389 0.570312L12.6388 0.320313ZM20.4027 20.584C20.4027 14.0264 19.0439 8.97312 17.4025 5.55527C16.582 3.84679 15.6897 2.54428 14.8587 1.66671C14.4433 1.228 14.041 0.893239 13.6686 0.667383C13.2975 0.442399 12.9475 0.32039 12.6389 0.320313L12.6388 0.570312C12.8846 0.570374 13.1891 0.669013 13.5389 0.881156C13.8874 1.09243 14.2725 1.41127 14.6772 1.83861C15.4863 2.69315 16.3651 3.97253 17.1772 5.66349C18.8008 9.04452 20.1527 14.0603 20.1527 20.584H20.4027ZM15.4434 43.1951C15.6499 42.8106 20.4027 33.8295 20.4027 20.584H20.1527C20.1527 33.7722 15.4194 42.7114 15.2231 43.0768L15.4434 43.1951ZM15.2471 43.5598L15.4433 43.1952L15.2232 43.0767L15.027 43.4413L15.2471 43.5598ZM10.1406 43.6256H15.1371V43.3756H10.1406V43.6256ZM9.83437 43.1952L10.0306 43.5598L10.2507 43.4413L10.0545 43.0767L9.83437 43.1952ZM4.875 20.584C4.875 33.8295 9.62787 42.8105 9.83431 43.1951L10.0546 43.0769C9.85835 42.7113 5.125 33.7722 5.125 20.584H4.875ZM11.8197 2.28905V2.28912H12.0697V2.28905H11.8197ZM11.9045 2.17067L11.9044 2.17072L11.9849 2.40739L11.9851 2.40734L11.9045 2.17067ZM12.0279 2.38235L12.0281 2.38223L11.8615 2.19578L11.8614 2.1959L12.0279 2.38235ZM12.0697 24.0566V2.28912H11.8197V24.0566H12.0697ZM13.3336 23.9316H11.9447V24.1816H13.3336V23.9316ZM13.2086 2.28905V24.0566H13.4586V2.28905H13.2086ZM19.0141 20.5842C19.0141 9.62286 15.2277 3.81217 13.4168 2.1958L13.2503 2.38231C14.995 3.93953 18.7641 9.67436 18.7641 20.5842H19.0141ZM18.0814 30.4944C18.6295 27.5798 19.0141 24.2422 19.0141 20.5842H18.7641C18.7641 24.2247 18.3813 27.5467 17.8357 30.4482L18.0814 30.4944ZM12.9227 26.3402C15.6003 27.8699 17.0636 29.415 17.8563 30.5431L18.0608 30.3994C17.2458 29.2394 15.7542 27.6699 13.0468 26.1231L12.9227 26.3402ZM6.39802 17.133C6.39202 17.3767 6.32188 22.5679 12.9227 26.3402L13.0468 26.1231C6.5543 22.4128 6.64326 17.3293 6.64794 17.1392L6.39802 17.133ZM6.52124 17.2611H6.52298V17.0111H6.52124V17.2611ZM11.8614 2.19591C10.2517 3.6343 7.08074 8.38639 6.39662 17.1264L6.64586 17.1459C7.32633 8.45255 10.4779 3.76735 12.028 2.38233L11.8614 2.19591ZM6.28698 21.7019C6.30611 22.5628 6.34091 23.4086 6.40012 24.2341L6.64948 24.2162C6.59064 23.3958 6.55599 22.5542 6.53692 21.6964L6.28698 21.7019ZM12.3574 27.3299C9.24952 25.5534 7.50405 23.4647 6.52203 21.6399L6.30188 21.7584C7.30606 23.6244 9.08481 25.7472 12.2333 27.5469L12.3574 27.3299ZM17.6406 32.5198C17.6125 32.4272 16.8316 29.8874 12.3574 27.3299L12.2333 27.5469C16.6498 30.0714 17.391 32.5582 17.4013 32.5922L17.6406 32.5198ZM17.6407 32.5202L17.6405 32.5196L17.4013 32.5924L17.4015 32.593L17.6407 32.5202ZM16.5536 36.6167C16.9278 35.4261 17.3019 34.074 17.643 32.5845L17.3993 32.5287C17.0597 34.0115 16.6873 35.3573 16.3151 36.5417L16.5536 36.6167ZM12.9328 33.2907C14.7338 34.3638 15.7502 35.6216 16.3255 36.6406L16.5432 36.5177C15.9483 35.4639 14.9022 34.1731 13.0608 33.076L12.9328 33.2907ZM6.4008 24.2409C6.52473 25.2161 7.40259 29.9978 12.9328 33.2908L13.0608 33.076C7.62212 29.8376 6.76753 25.1436 6.6488 24.2094L6.4008 24.2409ZM14.2936 41.9872H13.3335V42.2372H14.2936V41.9872ZM14.185 42.1741L14.1851 42.1744L14.402 42.0499L14.4018 42.0496L14.185 42.1741ZM15.6463 38.5276C15.0126 40.2765 14.4553 41.4912 14.1809 42.0573L14.4059 42.1664C14.6835 41.5936 15.2443 40.3708 15.8814 38.6128L15.6463 38.5276ZM12.2208 34.4831C14.8794 36.066 15.5125 38.0452 15.6422 38.5987L15.8856 38.5417C15.7444 37.9388 15.0789 35.8938 12.3487 34.2683L12.2208 34.4831ZM7.05518 29.6179C8.12907 31.2612 9.7537 33.0128 12.2207 34.4831L12.3487 34.2683C9.91661 32.8188 8.31902 31.0948 7.26446 29.4811L7.05518 29.6179ZM11.097 42.0576C10.4756 40.7768 8.41769 36.1756 7.28304 29.5285L7.0366 29.5705C8.17627 36.247 10.2435 40.8711 10.872 42.1667L11.097 42.0576ZM11.9446 41.9872H10.9845V42.2372H11.9446V41.9872ZM11.8196 37.2508V42.1122H12.0696V37.2508H11.8196ZM13.3335 37.1258H11.9446V37.3758H13.3335V37.1258ZM13.4585 42.1122V37.2508H13.2085V42.1122H13.4585Z" fill="black"/>
</g>
<defs>
<filter id="filter0_d_0_2964" x="0.875" y="0.320312" width="23.5277" height="51.3053" filterUnits="userSpaceOnUse" color-interpolation-filters="sRGB">
<feFlood flood-opacity="0" result="BackgroundImageFix"/>
<feColorMatrix in="SourceAlpha" type="matrix" values="0 0 0 0 0 0 0 0 0 0 0 0 0 0 0 0 0 0 127 0" result="hardAlpha"/>
<feOffset dy="4"/>
<feGaussianBlur stdDeviation="2"/>
<feColorMatrix type="matrix" values="0 0 0 0 0 0 0 0 0 0 0 0 0 0 0 0 0 0 0.25 0"/>
<feBlend mode="normal" in2="BackgroundImageFix" result="effect1_dropShadow_0_2964"/>
<feBlend mode="normal" in="SourceGraphic" in2="effect1_dropShadow_0_2964" result="shape"/>
</filter>
</defs>
</svg>
