<svg width="47" height="48" viewBox="0 0 47 48" fill="none" xmlns="http://www.w3.org/2000/svg">
<g filter="url(#filter0_d_0_2932)">
<path d="M42.037 32.1874H33.7502C33.4851 32.1874 33.2688 32.4054 33.2688 32.6727C33.2688 32.94 33.4851 33.158 33.7502 33.158H42.037C42.3022 33.158 42.5185 32.94 42.5185 32.6727C42.5185 32.4054 42.3022 32.1874 42.037 32.1874Z" fill="white"/>
<path d="M42.037 38.3392H32.7459C32.4807 38.3392 32.2644 38.5572 32.2644 38.8245C32.2644 39.0919 32.4807 39.3099 32.7459 39.3099H42.037C42.3022 39.3099 42.5185 39.0919 42.5185 38.8245C42.5185 38.5572 42.3022 38.3392 42.037 38.3392Z" fill="white"/>
<path d="M4.48148 35.6908H11.9743C12.2395 35.6908 12.4558 35.4728 12.4558 35.2055C12.4558 34.9382 12.2395 34.7202 11.9743 34.7202H4.48148C4.21629 34.7202 4 34.9382 4 35.2055C4 35.4747 4.21629 35.6908 4.48148 35.6908Z" fill="white"/>
<path fill-rule="evenodd" clip-rule="evenodd" d="M7.74481 0.533848C7.93098 0.440958 8.15292 0.478871 8.29962 0.626742L8.29986 0.62697C8.44468 0.774817 8.48229 1.00041 8.38825 1.18809C8.08921 1.79095 7.93875 2.43361 7.93875 3.09902C7.93875 5.4763 9.86843 7.41188 12.2382 7.41188C12.9021 7.41188 13.5435 7.25833 14.1453 6.9588C14.3315 6.86591 14.5534 6.90382 14.7001 7.05169C14.8468 7.19954 14.8826 7.42514 14.7904 7.61092C13.8933 9.42518 12.0877 10.5513 10.079 10.5513C7.1768 10.5513 4.81644 8.17947 4.81644 5.26568C4.81644 3.24667 5.93925 1.43435 7.74481 0.533848ZM13.1276 8.30626C12.8342 8.35745 12.5389 8.38209 12.238 8.38209L12.2381 8.38226C9.33594 8.38226 6.97557 6.01242 6.97745 3.09863C6.97745 2.7953 7.0019 2.49765 7.05268 2.2038C6.24772 2.99812 5.7794 4.09008 5.7794 5.26547C5.7794 7.64463 7.70908 9.58022 10.0789 9.58022C11.2506 9.58022 12.3358 9.11198 13.1276 8.30626Z" fill="white"/>
<path fill-rule="evenodd" clip-rule="evenodd" d="M42.039 24.4092H42.0371C41.7719 24.4092 41.5575 24.6253 41.5556 24.8926L41.5443 27.4841L23.677 0.922767C23.4983 0.655464 23.0601 0.655464 22.8796 0.922767L5.02529 27.4652L5.03658 24.7144C5.03846 24.4471 4.82217 24.2272 4.55698 24.2272H4.5551C4.28991 24.2272 4.0755 24.4433 4.07362 24.7106L4.05669 29.0519C4.05481 29.2661 4.19399 29.4538 4.39523 29.5183C4.44225 29.5334 4.48927 29.5391 4.53817 29.5391C4.69428 29.5391 4.84474 29.4614 4.9369 29.3268L7.74677 25.1504V29.0557C7.74677 29.323 7.96306 29.541 8.22826 29.541H18.9523C19.4996 31.3306 21.1603 32.6349 23.1201 32.6349C23.1223 32.6349 23.1245 32.6349 23.1267 32.6348C23.128 32.6347 23.1293 32.6346 23.1305 32.6346L23.1389 32.634C23.145 32.6335 23.1511 32.633 23.1577 32.633C23.1608 32.633 23.1645 32.6336 23.1681 32.6341C23.1711 32.6345 23.174 32.6349 23.1765 32.6349C23.1859 32.6349 23.1953 32.6335 23.2047 32.6321L23.2047 32.6321C23.2141 32.6307 23.2235 32.6292 23.2329 32.6292C25.1419 32.5799 26.75 31.2946 27.2861 29.541H38.3303C38.5955 29.541 38.8118 29.323 38.8118 29.0557V25.1504L41.6216 29.3268C41.7401 29.5031 41.9583 29.5808 42.1595 29.5183C42.3608 29.4557 42.5 29.268 42.5 29.0557L42.5188 24.8964C42.5207 24.6272 42.3062 24.4111 42.0392 24.4092L42.039 24.4092ZM23.2328 31.6589L23.2275 31.6592C23.2032 31.661 23.1804 31.6627 23.1575 31.6627C22.3225 31.6513 21.6454 30.9688 21.6454 30.1309C21.6454 29.5792 22.4504 28.3091 23.1764 27.3517C23.9023 28.3091 24.7073 29.5792 24.7073 30.1309C24.7073 30.9555 24.0509 31.6285 23.2328 31.6589L23.2328 31.6589ZM25.6684 30.129C25.6684 30.273 25.6496 30.4095 25.627 30.546L25.627 30.5461C26.1781 29.9394 26.5166 29.1375 26.5129 28.256C26.5129 26.8019 24.3236 23.708 23.1161 22.1687C21.9106 23.708 19.7194 26.8038 19.7194 28.256C19.7194 29.2114 20.1163 30.0759 20.7501 30.6958C20.7087 30.5119 20.6805 30.3242 20.6805 30.129C20.6805 28.9005 22.4503 26.6919 22.8039 26.2616C22.9864 26.0398 23.3625 26.0398 23.545 26.2616C23.9005 26.6919 25.6684 28.9005 25.6684 30.129ZM23.4905 21.0882C23.308 20.8664 22.9319 20.8664 22.7494 21.0882C22.3413 21.583 18.7602 25.9962 18.7602 28.2563C18.7602 28.3324 18.7651 28.4075 18.7699 28.4824V28.4824C18.7718 28.512 18.7737 28.5415 18.7753 28.571H13.9268V25.3709C14.555 24.8591 16.637 23.0847 18.7454 20.4513C20.457 18.3148 22.4111 15.2948 23.2969 11.852C24.1828 15.2966 26.1369 18.3144 27.8484 20.4513C29.9568 23.0845 32.0388 24.8589 32.6671 25.3709V28.571H27.4628C27.4703 28.4667 27.4778 28.3625 27.4778 28.2563C27.4797 25.9966 23.8987 21.5832 23.4906 21.0882H23.4905ZM33.6278 28.5708H37.8482L37.8507 23.7195L23.2801 2.06035L8.70954 23.7195V28.5708H12.962V25.1357C12.962 24.984 13.0316 24.8418 13.1501 24.7508L13.1504 24.7506C13.2666 24.6588 22.8134 17.1164 22.8134 8.18942C22.8134 7.92212 23.0297 7.70411 23.2949 7.70411C23.5601 7.70411 23.7764 7.92212 23.7764 8.18942C23.7764 17.1133 33.3165 24.6535 33.4392 24.7505L33.4397 24.7508C33.5582 24.8437 33.6278 24.9859 33.6278 25.1357V28.5708Z" fill="white"/>
<path fill-rule="evenodd" clip-rule="evenodd" d="M30.596 34.4321C30.6393 34.5534 30.6299 34.6899 30.5735 34.8056L30.5738 34.8056C30.5155 34.9231 30.4158 35.0122 30.2917 35.0539L28.5106 35.6473L30.2221 36.1345C30.3462 36.1706 30.4515 36.254 30.5136 36.3677C30.5757 36.4815 30.5888 36.6142 30.5531 36.7393L29.9381 38.8284C29.8761 39.0389 29.6861 39.1754 29.4773 39.1754C29.4341 39.1754 29.3889 39.1678 29.3457 39.1564L23.2179 37.4104L17.5941 39.2853C17.5452 39.3024 17.4945 39.3099 17.4437 39.3099C17.2443 39.3099 17.0581 39.1848 16.9923 38.9839L16.2832 36.9232C16.24 36.8018 16.2494 36.6653 16.3058 36.5497C16.3622 36.4322 16.4638 36.345 16.586 36.3033L18.0718 35.8085L16.287 35.3004C16.1628 35.2644 16.0575 35.181 15.9955 35.0672C15.9334 34.9535 15.9202 34.8208 15.956 34.6956L16.571 32.6065C16.6462 32.3506 16.9095 32.2046 17.1634 32.2766L23.3644 34.0435L29.2813 32.07C29.5315 31.9866 29.8004 32.1212 29.8869 32.3714L30.596 34.4321ZM17.3592 33.3402L17.0169 34.4985L19.7026 35.2644L21.7339 34.5876L17.3592 33.3402ZM29.4901 36.9345L29.1478 38.0928L24.8483 36.8663L26.8796 36.1895L29.4901 36.9345ZM17.3499 37.071L17.7429 38.2142L29.5262 34.2861L29.1331 33.1429L17.3499 37.071Z" fill="white"/>
</g>
<defs>
<filter id="filter0_d_0_2932" x="0" y="0.483398" width="46.5188" height="46.8265" filterUnits="userSpaceOnUse" color-interpolation-filters="sRGB">
<feFlood flood-opacity="0" result="BackgroundImageFix"/>
<feColorMatrix in="SourceAlpha" type="matrix" values="0 0 0 0 0 0 0 0 0 0 0 0 0 0 0 0 0 0 127 0" result="hardAlpha"/>
<feOffset dy="4"/>
<feGaussianBlur stdDeviation="2"/>
<feColorMatrix type="matrix" values="0 0 0 0 0 0 0 0 0 0 0 0 0 0 0 0 0 0 0.25 0"/>
<feBlend mode="normal" in2="BackgroundImageFix" result="effect1_dropShadow_0_2932"/>
<feBlend mode="normal" in="SourceGraphic" in2="effect1_dropShadow_0_2932" result="shape"/>
</filter>
</defs>
</svg>
