<svg width="52" height="33" viewBox="0 0 52 33" fill="none" xmlns="http://www.w3.org/2000/svg">
<path fill-rule="evenodd" clip-rule="evenodd" d="M49.75 22.2758V25.0223L49.7496 25.0225C50.3199 25.1384 50.7496 25.639 50.7496 26.2343V27.222C50.7496 27.8211 50.3199 28.3198 49.7496 28.4357V28.4609H43.1851C42.8218 30.7009 40.8628 32.4192 38.4995 32.4192C36.1362 32.4192 34.1773 30.7009 33.8159 28.4609H16.4349C16.0716 30.7009 14.1127 32.4192 11.7494 32.4192C9.38609 32.4192 7.42517 30.699 7.06384 28.4609H3.24939L2.50134 28.4628C1.80994 28.4628 1.24939 27.9062 1.24939 27.2239V26.2362C1.24939 25.552 1.81189 24.9973 2.50134 24.9973H3.24939V13.8665C3.24939 10.4551 6.05414 7.67961 9.50139 7.67961L15.2709 7.67575V5.70237C9.18539 5.12836 4.02894 4.05565 2.46839 2.51136C2.23597 2.28331 2.18128 1.93153 2.33362 1.64355C2.48597 1.35749 2.8063 1.199 3.13052 1.25699C8.10702 2.13832 15.8455 2.25622 22.7555 2.25622C24.2243 2.25622 25.6677 2.25236 27.0544 2.24656C27.407 2.2455 27.7559 2.24429 28.1008 2.2431L28.1009 2.2431L28.101 2.2431L28.1011 2.2431L28.1014 2.2431L28.1017 2.2431L28.1018 2.2431C29.0154 2.23995 29.9006 2.23689 30.7497 2.23689L37.1872 2.23883H37.1891C41.5466 2.23883 44.2302 2.20983 47.7106 2.04168C48.0544 2.02812 48.3727 2.24847 48.4684 2.57898C48.5641 2.9095 48.4176 3.2632 48.1149 3.43135C47.613 3.70967 46.988 3.96866 46.2477 4.20832V5.71012C46.2477 6.37888 45.8883 6.95675 45.2848 7.25827C45.029 7.38583 44.7594 7.44962 44.4919 7.44962C44.1286 7.44962 43.7673 7.33365 43.4548 7.10365L41.0349 5.32744C37.9529 5.77199 34.1366 6.05418 29.7499 6.15469V7.68156L34.9979 7.67963C38.3419 7.67963 41.4258 8.78712 43.9024 10.6484L44.1074 10.8069C46.1797 12.4206 47.8047 14.5718 48.7676 17.0477L48.7735 17.0593L48.7871 17.0921C48.8007 17.1304 48.8154 17.1675 48.83 17.2045L48.8301 17.2046L48.8301 17.2047L48.8302 17.2048L48.8302 17.2049L48.8303 17.2051C48.8429 17.237 48.8555 17.2687 48.8672 17.3009L49.166 18.0682H49.1231C49.5293 19.4018 49.75 20.8147 49.75 22.2758ZM36.0002 16.5859H46.9317H46.9319C46.0921 14.8715 44.8811 13.3504 43.3792 12.1327H36.0002C35.8654 12.1327 35.7502 12.2468 35.7502 12.3801V16.3385C35.7502 16.4718 35.8654 16.5859 36.0002 16.5859ZM44.75 5.71034C44.75 5.81278 44.7051 5.88623 44.6113 5.93261C44.5176 5.979 44.4336 5.97127 44.3496 5.90942L43.0918 4.98747C43.6817 4.87537 44.2344 4.75554 44.75 4.62991L44.75 5.71034ZM26.0908 3.73598L26.0906 3.73598C25.0042 3.73932 23.8892 3.74275 22.758 3.74275L22.7585 3.74271C18.319 3.74271 13.5376 3.69246 9.33647 3.4238C13.3715 4.17762 19.1745 4.71105 26.0005 4.71105C32.2735 4.71105 37.7601 4.34773 41.7425 3.70796C40.385 3.72343 38.9182 3.72922 37.1917 3.72922H37.1897L30.7502 3.72343C29.5823 3.72343 28.3459 3.72729 27.0608 3.73309L26.0908 3.73598ZM16.7715 5.83597C19.7813 6.0737 22.957 6.19547 26 6.19547C26.7637 6.19547 27.5137 6.18967 28.25 6.18V7.67982H16.7715V5.83597ZM8.50002 27.7191C8.50002 29.4934 9.95707 30.9353 11.75 30.9353C13.543 30.9353 15 29.4934 15 27.7191C15 25.9448 13.543 24.503 11.75 24.503C9.95707 24.503 8.50002 25.9448 8.50002 27.7191ZM38.5 30.9353C36.7071 30.9353 35.25 29.4934 35.25 27.7191C35.25 25.9448 36.7071 24.503 38.5 24.503C40.293 24.503 41.75 25.9448 41.75 27.7191C41.75 29.4934 40.293 30.9353 38.5 30.9353ZM38.5 23.0186C40.8633 23.0186 42.8242 24.7369 43.1856 26.9769H49.25V26.4821H44.75V24.9978H48.25V22.2783C48.25 20.8055 48 19.3927 47.5469 18.0707H35.9999C35.035 18.0707 34.2499 17.2937 34.2499 16.3389V12.3806C34.2499 11.4258 35.035 10.6488 35.9999 10.6488H41.1114C39.2811 9.70366 37.201 9.16443 34.9979 9.16443H9.50187C6.88077 9.16443 4.74992 11.275 4.74992 13.8669V16.5863H12.2849V18.0707H4.74992V24.9978H5.74992V26.4821H2.74992V26.9769H7.06437C7.42767 24.7369 9.38662 23.0186 11.7499 23.0186C14.1132 23.0186 16.0741 24.7369 16.4355 26.9769H33.8145C34.1778 24.7369 36.1367 23.0186 38.5 23.0186Z" fill="white"/>
<path d="M49.75 25.0223L49.8336 25.3105L50.05 25.2477V25.0223H49.75ZM49.7496 25.0225L49.666 24.7343L49.6898 25.3164L49.7496 25.0225ZM49.7496 28.4357L49.6898 28.1418L49.4496 28.1906V28.4357H49.7496ZM49.7496 28.4609V28.7609H50.0496V28.4609H49.7496ZM43.1851 28.4609V28.1609H42.9298L42.889 28.4128L43.1851 28.4609ZM33.8159 28.4609L34.1121 28.4131L34.0714 28.1609H33.8159V28.4609ZM16.4349 28.4609V28.1609H16.1797L16.1388 28.4128L16.4349 28.4609ZM7.06384 28.4609L7.36 28.413L7.31929 28.1609H7.06384V28.4609ZM3.24939 28.4609V28.1609L3.24861 28.1609L3.24939 28.4609ZM2.50134 28.4628V28.7628L2.50211 28.7628L2.50134 28.4628ZM3.24939 24.9973V25.2973H3.54939V24.9973H3.24939ZM9.50139 7.67961V7.97961L9.50159 7.97961L9.50139 7.67961ZM15.2709 7.67575L15.2711 7.97575L15.5709 7.97555V7.67575H15.2709ZM15.2709 5.70237H15.5709V5.42934L15.2991 5.4037L15.2709 5.70237ZM2.46839 2.51136L2.67941 2.29812L2.6785 2.29722L2.46839 2.51136ZM2.33362 1.64355L2.06884 1.50252L2.06844 1.50326L2.33362 1.64355ZM3.13052 1.25699L3.07771 1.5523L3.07821 1.55239L3.13052 1.25699ZM27.0544 2.24656L27.0535 1.94656L27.0531 1.94656L27.0544 2.24656ZM28.1008 2.2431L28.1018 2.5431L28.1019 2.5431L28.1008 2.2431ZM28.1011 2.2431L28.1 1.9431L28.1 1.9431L28.1011 2.2431ZM28.1014 2.2431L28.1005 1.9431L28.1004 1.9431L28.1014 2.2431ZM28.1017 2.2431L28.1026 2.5431L28.1028 2.5431L28.1017 2.2431ZM28.1018 2.2431L28.1007 1.9431L28.1006 1.9431L28.1018 2.2431ZM30.7497 2.23689L30.7498 1.93689H30.7497V2.23689ZM37.1872 2.23883L37.1871 2.53883H37.1872V2.23883ZM47.7106 2.04168L47.6988 1.7419L47.6962 1.74203L47.7106 2.04168ZM48.4684 2.57898L48.7566 2.49554V2.49553L48.4684 2.57898ZM48.1149 3.43135L48.2604 3.69372L48.2606 3.69361L48.1149 3.43135ZM46.2477 4.20832L46.1553 3.92291L45.9477 3.99012V4.20832H46.2477ZM45.2848 7.25827L45.4187 7.52675L45.4189 7.52664L45.2848 7.25827ZM43.4548 7.10365L43.6326 6.86203L43.6323 6.8618L43.4548 7.10365ZM41.0349 5.32744L41.2124 5.0856L41.1135 5.013L40.992 5.03052L41.0349 5.32744ZM29.7499 6.15469L29.743 5.85476L29.4499 5.86148V6.15469H29.7499ZM29.7499 7.68156H29.4499V7.98167L29.75 7.98156L29.7499 7.68156ZM34.9979 7.67963V7.37963H34.9978L34.9979 7.67963ZM43.9024 10.6484L44.0858 10.411L44.0826 10.4086L43.9024 10.6484ZM44.1074 10.8069L44.2918 10.5702L44.2909 10.5695L44.1074 10.8069ZM48.7676 17.0477L48.488 17.1564L48.4933 17.17L48.4998 17.183L48.7676 17.0477ZM48.7735 17.0593L49.0504 16.944L49.0462 16.9338L49.0412 16.924L48.7735 17.0593ZM48.7871 17.0921L49.0698 16.9918L49.0672 16.9843L49.0641 16.9769L48.7871 17.0921ZM48.83 17.2045L48.5511 17.3149L48.5515 17.3159L48.83 17.2045ZM48.8301 17.2046L49.1099 17.0963L49.1086 17.0932L48.8301 17.2046ZM48.8301 17.2047L48.5503 17.313L48.5516 17.3161L48.8301 17.2047ZM48.8302 17.2048L49.11 17.0965L49.1087 17.0934L48.8302 17.2048ZM48.8302 17.2049L48.5504 17.3132L48.5517 17.3164L48.8302 17.2049ZM48.8303 17.2051L49.1092 17.0946L49.1088 17.0937L48.8303 17.2051ZM48.8672 17.3009L48.5853 17.4037L48.5877 17.4097L48.8672 17.3009ZM49.166 18.0682V18.3682H49.6048L49.4456 17.9593L49.166 18.0682ZM49.1231 18.0682V17.7682H48.7181L48.8361 18.1556L49.1231 18.0682ZM46.9319 16.5859V16.8859H47.4129L47.2013 16.4539L46.9319 16.5859ZM43.3792 12.1327L43.5681 11.8997L43.4855 11.8327H43.3792V12.1327ZM44.6113 5.93261L44.4783 5.66373L44.4783 5.66373L44.6113 5.93261ZM44.75 5.71034L44.45 5.71034V5.71034H44.75ZM44.3496 5.90942L44.5275 5.66785L44.527 5.66746L44.3496 5.90942ZM43.0918 4.98747L43.0358 4.69275L42.358 4.82156L42.9145 5.22944L43.0918 4.98747ZM44.75 4.62991L45.05 4.62991L45.05 4.24803L44.679 4.33844L44.75 4.62991ZM26.0906 3.73598L26.0915 4.03598L26.0918 4.03598L26.0906 3.73598ZM26.0908 3.73598L26.0899 3.43598L26.0896 3.43598L26.0908 3.73598ZM22.758 3.74275L22.7309 3.44398L22.758 4.04275V3.74275ZM22.7585 3.74271L22.7856 4.04148L22.7585 3.44271V3.74271ZM9.33647 3.4238L9.35561 3.12442L9.28138 3.7187L9.33647 3.4238ZM41.7425 3.70796L41.7901 4.00417L41.739 3.40798L41.7425 3.70796ZM37.1897 3.72922L37.1894 4.02922H37.1897V3.72922ZM30.7502 3.72343L30.7505 3.42343H30.7502V3.72343ZM27.0608 3.73309L27.0617 4.03309L27.0621 4.03309L27.0608 3.73309ZM16.7715 5.83597L16.7951 5.5369L16.4715 5.51134V5.83597H16.7715ZM28.25 6.18H28.55V5.87604L28.2461 5.88003L28.25 6.18ZM28.25 7.67982V7.97982H28.55V7.67982H28.25ZM16.7715 7.67982H16.4715V7.97982H16.7715V7.67982ZM43.1856 26.9769L42.8894 27.0247L42.9301 27.2769H43.1856V26.9769ZM49.25 26.9769V27.2769H49.55V26.9769H49.25ZM49.25 26.4821H49.55V26.1821H49.25V26.4821ZM44.75 26.4821H44.45V26.7821H44.75V26.4821ZM44.75 24.9978V24.6978H44.45V24.9978H44.75ZM48.25 24.9978V25.2978H48.55V24.9978H48.25ZM47.5469 18.0707L47.8307 17.9734L47.7612 17.7707H47.5469V18.0707ZM41.1114 10.6488V10.9488L41.249 10.3822L41.1114 10.6488ZM4.74992 16.5863H4.44992V16.8863H4.74992V16.5863ZM12.2849 16.5863H12.5849V16.2863H12.2849V16.5863ZM12.2849 18.0707V18.3707H12.5849V18.0707H12.2849ZM4.74992 18.0707V17.7707H4.44992V18.0707H4.74992ZM4.74992 24.9978H4.44992V25.2978H4.74992V24.9978ZM5.74992 24.9978H6.04992V24.6978H5.74992V24.9978ZM5.74992 26.4821V26.7821H6.04992V26.4821H5.74992ZM2.74992 26.4821V26.1821H2.44992V26.4821H2.74992ZM2.74992 26.9769H2.44992V27.2769H2.74992V26.9769ZM7.06437 26.9769V27.2769H7.31963L7.3605 27.025L7.06437 26.9769ZM16.4355 26.9769L16.1393 27.0247L16.18 27.2769H16.4355V26.9769ZM33.8145 26.9769V27.2769H34.0697L34.1106 27.025L33.8145 26.9769ZM50.05 25.0223V22.2758H49.45V25.0223H50.05ZM49.8332 25.3106L49.8336 25.3105L49.6664 24.7342L49.666 24.7343L49.8332 25.3106ZM51.0496 26.2343C51.0496 25.491 50.5141 24.8718 49.8094 24.7285L49.6898 25.3164C50.1257 25.4051 50.4496 25.7871 50.4496 26.2343H51.0496ZM51.0496 27.222V26.2343H50.4496V27.222H51.0496ZM49.8094 28.7297C50.5141 28.5864 51.0496 27.9692 51.0496 27.222H50.4496C50.4496 27.673 50.1257 28.0531 49.6898 28.1418L49.8094 28.7297ZM50.0496 28.4609V28.4357H49.4496V28.4609H50.0496ZM43.1851 28.7609H49.7496V28.1609H43.1851V28.7609ZM38.4995 32.7192C41.011 32.7192 43.0945 30.8932 43.4812 28.5089L42.889 28.4128C42.549 30.5087 40.7146 32.1192 38.4995 32.1192V32.7192ZM33.5198 28.5086C33.9044 30.8932 35.9881 32.7192 38.4995 32.7192V32.1192C36.2844 32.1192 34.4501 30.5087 34.1121 28.4131L33.5198 28.5086ZM16.4349 28.7609H33.8159V28.1609H16.4349V28.7609ZM11.7494 32.7192C14.2609 32.7192 16.3444 30.8932 16.7311 28.5089L16.1388 28.4128C15.7989 30.5087 13.9645 32.1192 11.7494 32.1192V32.7192ZM6.76767 28.5087C7.15233 30.8913 9.23799 32.7192 11.7494 32.7192V32.1192C9.53419 32.1192 7.69801 30.5067 7.36 28.413L6.76767 28.5087ZM3.24939 28.7609H7.06384V28.1609H3.24939V28.7609ZM2.50211 28.7628L3.25016 28.7609L3.24861 28.1609L2.50056 28.1628L2.50211 28.7628ZM0.94939 27.2239C0.94939 28.0745 1.64692 28.7628 2.50134 28.7628V28.1628C1.97296 28.1628 1.54939 27.7378 1.54939 27.2239H0.94939ZM0.94939 26.2362V27.2239H1.54939V26.2362H0.94939ZM2.50134 24.6973C1.64948 24.6973 0.94939 25.3831 0.94939 26.2362H1.54939C1.54939 25.721 1.9743 25.2973 2.50134 25.2973V24.6973ZM3.24939 24.6973H2.50134V25.2973H3.24939V24.6973ZM2.94939 13.8665V24.9973H3.54939V13.8665H2.94939ZM9.50139 7.37961C5.89143 7.37961 2.94939 10.2865 2.94939 13.8665H3.54939C3.54939 10.6237 6.21685 7.97961 9.50139 7.97961V7.37961ZM15.2707 7.37575L9.50119 7.37961L9.50159 7.97961L15.2711 7.97575L15.2707 7.37575ZM14.9709 5.70237V7.67575H15.5709V5.70237H14.9709ZM2.25737 2.7246C2.68842 3.15116 3.34535 3.52577 4.15769 3.85837C4.97484 4.19292 5.97196 4.49397 7.10349 4.76261C9.36682 5.29996 12.1923 5.71332 15.2427 6.00104L15.2991 5.4037C12.264 5.11742 9.46849 4.70742 7.24208 4.17884C6.12874 3.91451 5.1638 3.62195 4.38503 3.3031C3.60147 2.98229 3.02864 2.64371 2.67941 2.29812L2.25737 2.7246ZM2.06844 1.50326C1.85405 1.90854 1.93111 2.40448 2.25828 2.7255L2.6785 2.29722C2.54083 2.16214 2.50851 1.95451 2.59881 1.78383L2.06844 1.50326ZM3.18334 0.961675C2.73018 0.880631 2.28199 1.10231 2.06884 1.50252L2.59841 1.78457C2.68996 1.61267 2.88243 1.51738 3.07771 1.5523L3.18334 0.961675ZM22.7555 1.95622C15.8393 1.95622 8.12849 1.83746 3.18284 0.961586L3.07821 1.55239C8.08556 2.43919 15.8518 2.55622 22.7555 2.55622V1.95622ZM27.0531 1.94656C25.6667 1.95236 24.2238 1.95622 22.7555 1.95622V2.55622C24.2248 2.55622 25.6686 2.55235 27.0556 2.54655L27.0531 1.94656ZM28.0998 1.94311C27.7549 1.9443 27.406 1.9455 27.0535 1.94656L27.0553 2.54656C27.408 2.5455 27.757 2.54429 28.1018 2.5431L28.0998 1.94311ZM28.0998 1.94311L28.0997 1.94311L28.1019 2.5431L28.102 2.5431L28.0998 1.94311ZM28.0999 1.94311L28.0998 1.94311L28.102 2.5431L28.1021 2.5431L28.0999 1.94311ZM28.1 1.9431L28.0999 1.94311L28.1021 2.5431L28.1022 2.5431L28.1 1.9431ZM28.1004 1.9431L28.1 1.9431L28.1022 2.5431L28.1025 2.5431L28.1004 1.9431ZM28.1007 1.9431L28.1005 1.9431L28.1024 2.5431L28.1026 2.5431L28.1007 1.9431ZM28.1006 1.9431L28.1005 1.9431L28.1028 2.5431L28.1029 2.5431L28.1006 1.9431ZM30.7497 1.93689C29.9 1.93689 29.0143 1.93995 28.1007 1.9431L28.1028 2.5431C29.0166 2.53995 29.9012 2.53689 30.7497 2.53689V1.93689ZM37.1873 1.93883L30.7498 1.93689L30.7496 2.53689L37.1871 2.53883L37.1873 1.93883ZM37.1891 1.93883H37.1872V2.53883H37.1891V1.93883ZM47.6962 1.74203C44.2229 1.90983 41.545 1.93883 37.1891 1.93883V2.53883C41.5482 2.53883 44.2374 2.50983 47.7251 2.34133L47.6962 1.74203ZM48.7566 2.49553C48.6209 2.02703 48.1746 1.72315 47.6988 1.74191L47.7225 2.34145C47.9341 2.3331 48.1245 2.4699 48.1803 2.66242L48.7566 2.49553ZM48.2606 3.69361C48.6847 3.45805 48.8915 2.96141 48.7566 2.49554L48.1803 2.66241C48.2368 2.85758 48.1506 3.06836 47.9692 3.16909L48.2606 3.69361ZM46.3401 4.49374C47.0923 4.25022 47.7365 3.98423 48.2604 3.69372L47.9694 3.16899C47.4895 3.43511 46.8837 3.68709 46.1553 3.92291L46.3401 4.49374ZM46.5477 5.71012V4.20832H45.9477V5.71012H46.5477ZM45.4189 7.52664C46.1229 7.17489 46.5477 6.4938 46.5477 5.71012H45.9477C45.9477 6.26395 45.6537 6.73862 45.1507 6.9899L45.4189 7.52664ZM44.4919 7.74962C44.8077 7.74962 45.1229 7.67423 45.4187 7.52675L45.151 6.98979C44.935 7.09744 44.7112 7.14962 44.4919 7.14962V7.74962ZM43.2769 7.34526C43.6404 7.61274 44.0639 7.74962 44.4919 7.74962V7.14962C44.1934 7.14962 43.8942 7.05455 43.6326 6.86203L43.2769 7.34526ZM40.8573 5.56929L43.2772 7.34549L43.6323 6.8618L41.2124 5.0856L40.8573 5.56929ZM29.7567 6.45461C34.1512 6.35393 37.9802 6.07115 41.0777 5.62437L40.992 5.03052C37.9255 5.47284 34.1219 5.75444 29.743 5.85476L29.7567 6.45461ZM30.0499 7.68156V6.15469H29.4499V7.68156H30.0499ZM34.9978 7.37963L29.7498 7.38156L29.75 7.98156L34.998 7.97963L34.9978 7.37963ZM44.0826 10.4086C41.556 8.50965 38.4092 7.37963 34.9979 7.37963V7.97963C38.2746 7.97963 41.2957 9.0646 43.7221 10.8882L44.0826 10.4086ZM44.2909 10.5695L44.0858 10.411L43.7189 10.8858L43.924 11.0442L44.2909 10.5695ZM49.0472 16.9389C48.0642 14.4115 46.4058 12.2164 44.2918 10.5702L43.9231 11.0436C45.9536 12.6247 47.5451 14.7321 48.488 17.1564L49.0472 16.9389ZM49.0412 16.924L49.0354 16.9124L48.4998 17.183L48.5057 17.1946L49.0412 16.924ZM49.0641 16.9769L49.0504 16.944L48.4965 17.1745L48.5101 17.2074L49.0641 16.9769ZM49.109 17.094C49.094 17.0563 49.0813 17.0241 49.0698 16.9918L48.5044 17.1925C48.5201 17.2366 48.5368 17.2787 48.5511 17.3149L49.109 17.094ZM49.1086 17.0932L49.1086 17.0931L48.5515 17.3159L48.5515 17.316L49.1086 17.0932ZM49.1099 17.0964L49.1099 17.0963L48.5503 17.3129L48.5504 17.313L49.1099 17.0964ZM49.1087 17.0934L49.1087 17.0933L48.5516 17.3161L48.5516 17.3163L49.1087 17.0934ZM49.11 17.0966L49.11 17.0965L48.5504 17.3131L48.5504 17.3132L49.11 17.0966ZM49.1088 17.0937L49.1088 17.0935L48.5517 17.3164L48.5517 17.3165L49.1088 17.0937ZM49.149 17.198C49.1357 17.1614 49.1216 17.1259 49.1092 17.0946L48.5513 17.3155C48.5642 17.348 48.5753 17.376 48.5854 17.4037L49.149 17.198ZM49.4456 17.9593L49.1468 17.192L48.5877 17.4097L48.8865 18.1771L49.4456 17.9593ZM49.1231 18.3682H49.166V17.7682H49.1231V18.3682ZM50.05 22.2758C50.05 20.7843 49.8247 19.342 49.41 17.9808L48.8361 18.1556C49.2339 19.4616 49.45 20.845 49.45 22.2758H50.05ZM46.9317 16.2859H36.0002V16.8859H46.9317V16.2859ZM46.9319 16.2859H46.9317V16.8859H46.9319V16.2859ZM43.1902 12.3658C44.6585 13.5561 45.8419 15.0428 46.6625 16.7178L47.2013 16.4539C46.3422 14.7002 45.1037 13.1446 43.5681 11.8997L43.1902 12.3658ZM36.0002 12.4327H43.3792V11.8327H36.0002V12.4327ZM36.0502 12.3801C36.0502 12.4011 36.0413 12.4141 36.0356 12.4197C36.03 12.4253 36.0184 12.4327 36.0002 12.4327V11.8327C35.7027 11.8327 35.4502 12.0781 35.4502 12.3801H36.0502ZM36.0502 16.3385V12.3801H35.4502V16.3385H36.0502ZM36.0002 16.2859C36.0184 16.2859 36.03 16.2933 36.0356 16.2989C36.0413 16.3045 36.0502 16.3175 36.0502 16.3385H35.4502C35.4502 16.6405 35.7027 16.8859 36.0002 16.8859V16.2859ZM44.7444 6.2015C44.8315 6.1584 44.9129 6.0938 44.9707 6.00073C45.0285 5.90766 45.05 5.80642 45.05 5.71034H44.45C44.45 5.71407 44.4496 5.71239 44.451 5.70686C44.4525 5.70099 44.4556 5.69291 44.461 5.68426C44.4663 5.67561 44.4722 5.66939 44.4766 5.66558C44.4807 5.66201 44.4821 5.66184 44.4783 5.66373L44.7444 6.2015ZM44.1717 6.15098C44.248 6.20717 44.3411 6.25066 44.4501 6.26041C44.5592 6.27017 44.6588 6.24384 44.7444 6.2015L44.4783 5.66373C44.4737 5.66599 44.4743 5.66512 44.4794 5.66402C44.4849 5.66283 44.4934 5.66189 44.5036 5.6628C44.5137 5.66371 44.5218 5.66612 44.5269 5.66821C44.5315 5.67013 44.5318 5.67098 44.5275 5.66786L44.1717 6.15098ZM42.9145 5.22944L44.1723 6.15138L44.527 5.66746L43.2692 4.74551L42.9145 5.22944ZM44.679 4.33844C44.1687 4.46279 43.6209 4.58155 43.0358 4.69275L43.1478 5.2822C43.7424 5.1692 44.3002 5.04829 44.821 4.92138L44.679 4.33844ZM45.05 5.71034L45.05 4.62991L44.45 4.62991L44.45 5.71034L45.05 5.71034ZM26.0918 4.03598L26.092 4.03598L26.0896 3.43598L26.0895 3.43598L26.0918 4.03598ZM22.758 4.04275C23.8897 4.04275 25.0052 4.03932 26.0915 4.03598L26.0897 3.43598C25.0032 3.43932 23.8887 3.44275 22.758 3.44275V4.04275ZM22.7313 3.44394L22.7309 3.44398L22.7852 4.04152L22.7856 4.04148L22.7313 3.44394ZM9.31732 3.72319C13.5287 3.9925 18.3181 4.04271 22.7585 4.04271V3.44271C18.3198 3.44271 13.5466 3.39242 9.35561 3.12442L9.31732 3.72319ZM26.0005 4.41105C19.1881 4.41105 13.4041 3.87853 9.39156 3.12891L9.28138 3.7187C13.3388 4.47671 19.1609 5.01105 26.0005 5.01105V4.41105ZM41.6949 3.41176C37.7337 4.04811 32.2643 4.41105 26.0005 4.41105V5.01105C32.2826 5.01105 37.7864 4.64734 41.7901 4.00417L41.6949 3.41176ZM37.1917 4.02922C38.9188 4.02922 40.3869 4.02342 41.7459 4.00794L41.739 3.40798C40.3832 3.42343 38.9176 3.42922 37.1917 3.42922V4.02922ZM37.1897 4.02922H37.1917V3.42922H37.1897V4.02922ZM30.7499 4.02343L37.1894 4.02922L37.19 3.42922L30.7505 3.42343L30.7499 4.02343ZM27.0621 4.03309C28.347 4.02729 29.5829 4.02343 30.7502 4.02343V3.42343C29.5816 3.42343 28.3448 3.42729 27.0594 3.43309L27.0621 4.03309ZM26.0917 4.03598L27.0617 4.03309L27.0599 3.43309L26.0899 3.43598L26.0917 4.03598ZM26 5.89546C22.9646 5.89546 19.7968 5.77399 16.7951 5.5369L16.7479 6.13504C19.7658 6.37341 22.9494 6.49547 26 6.49547V5.89546ZM28.2461 5.88003C27.5108 5.88968 26.7622 5.89546 26 5.89546V6.49547C26.7652 6.49547 27.5165 6.48966 28.254 6.47998L28.2461 5.88003ZM28.55 7.67982V6.18H27.95V7.67982H28.55ZM16.7715 7.97982H28.25V7.37982H16.7715V7.97982ZM16.4715 5.83597V7.67982H17.0715V5.83597H16.4715ZM11.75 30.6353C10.1198 30.6353 8.80002 29.3248 8.80002 27.7191H8.20002C8.20002 29.662 9.79435 31.2353 11.75 31.2353V30.6353ZM14.7 27.7191C14.7 29.3248 13.3802 30.6353 11.75 30.6353V31.2353C13.7057 31.2353 15.3 29.662 15.3 27.7191H14.7ZM11.75 24.803C13.3802 24.803 14.7 26.1135 14.7 27.7191H15.3C15.3 25.7762 13.7057 24.203 11.75 24.203V24.803ZM8.80002 27.7191C8.80002 26.1135 10.1198 24.803 11.75 24.803V24.203C9.79435 24.203 8.20002 25.7762 8.20002 27.7191H8.80002ZM34.95 27.7191C34.95 29.662 36.5443 31.2353 38.5 31.2353V30.6353C36.8698 30.6353 35.55 29.3248 35.55 27.7191H34.95ZM38.5 24.203C36.5443 24.203 34.95 25.7762 34.95 27.7191H35.55C35.55 26.1135 36.8698 24.803 38.5 24.803V24.203ZM42.05 27.7191C42.05 25.7762 40.4557 24.203 38.5 24.203V24.803C40.1302 24.803 41.45 26.1135 41.45 27.7191H42.05ZM38.5 31.2353C40.4557 31.2353 42.05 29.662 42.05 27.7191H41.45C41.45 29.3248 40.1302 30.6353 38.5 30.6353V31.2353ZM43.4817 26.9292C43.0971 24.5445 41.0113 22.7186 38.5 22.7186V23.3186C40.7153 23.3186 42.5514 24.9293 42.8894 27.0247L43.4817 26.9292ZM49.25 26.6769H43.1856V27.2769H49.25V26.6769ZM48.95 26.4821V26.9769H49.55V26.4821H48.95ZM44.75 26.7821H49.25V26.1821H44.75V26.7821ZM44.45 24.9978V26.4821H45.05V24.9978H44.45ZM48.25 24.6978H44.75V25.2978H48.25V24.6978ZM47.95 22.2783V24.9978H48.55V22.2783H47.95ZM47.2631 18.168C47.7059 19.4598 47.95 20.8398 47.95 22.2783H48.55C48.55 20.7713 48.2941 19.3256 47.8307 17.9734L47.2631 18.168ZM35.9999 18.3707H47.5469V17.7707H35.9999V18.3707ZM33.9499 16.3389C33.9499 17.4623 34.8723 18.3707 35.9999 18.3707V17.7707C35.1977 17.7707 34.5499 17.1251 34.5499 16.3389H33.9499ZM33.9499 12.3806V16.3389H34.5499V12.3806H33.9499ZM35.9999 10.3488C34.8723 10.3488 33.9499 11.2571 33.9499 12.3806H34.5499C34.5499 11.5944 35.1977 10.9488 35.9999 10.9488V10.3488ZM41.1114 10.3488H35.9999V10.9488H41.1114V10.3488ZM34.9979 9.46443C37.1515 9.46443 39.1846 9.99147 40.9737 10.9154L41.249 10.3822C39.3776 9.41585 37.2504 8.86443 34.9979 8.86443V9.46443ZM9.50187 9.46443H34.9979V8.86443H9.50187V9.46443ZM5.04992 13.8669C5.04992 11.4436 7.04356 9.46443 9.50187 9.46443V8.86443C6.71797 8.86443 4.44992 11.1065 4.44992 13.8669H5.04992ZM5.04992 16.5863V13.8669H4.44992V16.5863H5.04992ZM12.2849 16.2863H4.74992V16.8863H12.2849V16.2863ZM12.5849 18.0707V16.5863H11.9849V18.0707H12.5849ZM4.74992 18.3707H12.2849V17.7707H4.74992V18.3707ZM5.04992 24.9978V18.0707H4.44992V24.9978H5.04992ZM5.74992 24.6978H4.74992V25.2978H5.74992V24.6978ZM6.04992 26.4821V24.9978H5.44992V26.4821H6.04992ZM2.74992 26.7821H5.74992V26.1821H2.74992V26.7821ZM3.04992 26.9769V26.4821H2.44992V26.9769H3.04992ZM7.06437 26.6769H2.74992V27.2769H7.06437V26.6769ZM11.7499 22.7186C9.23842 22.7186 7.15492 24.5446 6.76824 26.9289L7.3605 27.025C7.70041 24.9291 9.53481 23.3186 11.7499 23.3186V22.7186ZM16.7316 26.9292C16.347 24.5445 14.2612 22.7186 11.7499 22.7186V23.3186C13.9652 23.3186 15.8013 24.9293 16.1393 27.0247L16.7316 26.9292ZM33.8145 26.6769H16.4355V27.2769H33.8145V26.6769ZM38.5 22.7186C35.9885 22.7186 33.905 24.5446 33.5183 26.9289L34.1106 27.025C34.4505 24.9291 36.2849 23.3186 38.5 23.3186V22.7186Z" fill="#222532"/>
<path fill-rule="evenodd" clip-rule="evenodd" d="M23.75 12.3801V16.3384C23.75 17.2932 22.9648 18.0702 22 18.0702H17C16.0351 18.0702 15.25 17.2932 15.25 16.3384V12.3801C15.25 11.4253 16.0351 10.6483 17 10.6483H22C22.9648 10.6483 23.75 11.4253 23.75 12.3801ZM16.75 12.3801V16.3384C16.75 16.4737 16.8652 16.5858 17 16.5858H22C22.1348 16.5858 22.25 16.4718 22.25 16.3384V12.3801C22.25 12.2467 22.1348 12.1327 22 12.1327H17C16.8652 12.1327 16.75 12.2467 16.75 12.3801Z" fill="white"/>
<path d="M24.05 16.3384V12.3801H23.45V16.3384H24.05ZM22 18.3702C23.1276 18.3702 24.05 17.4619 24.05 16.3384H23.45C23.45 17.1246 22.8021 17.7702 22 17.7702V18.3702ZM17 18.3702H22V17.7702H17V18.3702ZM14.95 16.3384C14.95 17.4619 15.8724 18.3702 17 18.3702V17.7702C16.1979 17.7702 15.55 17.1246 15.55 16.3384H14.95ZM14.95 12.3801V16.3384H15.55V12.3801H14.95ZM17 10.3483C15.8724 10.3483 14.95 11.2566 14.95 12.3801H15.55C15.55 11.5939 16.1979 10.9483 17 10.9483V10.3483ZM22 10.3483H17V10.9483H22V10.3483ZM24.05 12.3801C24.05 11.2566 23.1276 10.3483 22 10.3483V10.9483C22.8021 10.9483 23.45 11.5939 23.45 12.3801H24.05ZM17.05 16.3384V12.3801H16.45V16.3384H17.05ZM17 16.2858C17.0167 16.2858 17.0284 16.2926 17.0349 16.299C17.0417 16.3057 17.05 16.3191 17.05 16.3384H16.45C16.45 16.6439 16.704 16.8858 17 16.8858V16.2858ZM22 16.2858H17V16.8858H22V16.2858ZM21.95 16.3384C21.95 16.3174 21.9589 16.3045 21.9645 16.2989C21.9702 16.2933 21.9818 16.2858 22 16.2858V16.8858C22.2975 16.8858 22.55 16.6404 22.55 16.3384H21.95ZM21.95 12.3801V16.3384H22.55V12.3801H21.95ZM22 12.4327C21.9818 12.4327 21.9702 12.4252 21.9645 12.4196C21.9589 12.414 21.95 12.4011 21.95 12.3801H22.55C22.55 12.0781 22.2975 11.8327 22 11.8327V12.4327ZM17 12.4327H22V11.8327H17V12.4327ZM17.05 12.3801C17.05 12.4011 17.0411 12.414 17.0355 12.4196C17.0298 12.4252 17.0182 12.4327 17 12.4327V11.8327C16.7025 11.8327 16.45 12.0781 16.45 12.3801H17.05Z" fill="#222532"/>
<path fill-rule="evenodd" clip-rule="evenodd" d="M26.5 10.6483H31.5C32.4648 10.6483 33.25 11.4253 33.25 12.3801V16.3384C33.25 17.2932 32.4648 18.0702 31.5 18.0702H26.5C25.5351 18.0702 24.75 17.2932 24.75 16.3384V12.3801C24.75 11.4253 25.5351 10.6483 26.5 10.6483ZM31.5 16.5858C31.6348 16.5858 31.75 16.4718 31.75 16.3384V12.3801C31.75 12.2467 31.6348 12.1327 31.5 12.1327H26.5C26.3652 12.1327 26.25 12.2467 26.25 12.3801V16.3384C26.25 16.4718 26.3652 16.5858 26.5 16.5858H31.5Z" fill="white"/>
<path d="M31.5 10.3483H26.5V10.9483H31.5V10.3483ZM33.55 12.3801C33.55 11.2566 32.6276 10.3483 31.5 10.3483V10.9483C32.3021 10.9483 32.95 11.5939 32.95 12.3801H33.55ZM33.55 16.3384V12.3801H32.95V16.3384H33.55ZM31.5 18.3702C32.6276 18.3702 33.55 17.4619 33.55 16.3384H32.95C32.95 17.1246 32.3021 17.7702 31.5 17.7702V18.3702ZM26.5 18.3702H31.5V17.7702H26.5V18.3702ZM24.45 16.3384C24.45 17.4619 25.3724 18.3702 26.5 18.3702V17.7702C25.6979 17.7702 25.05 17.1246 25.05 16.3384H24.45ZM24.45 12.3801V16.3384H25.05V12.3801H24.45ZM26.5 10.3483C25.3724 10.3483 24.45 11.2566 24.45 12.3801H25.05C25.05 11.5939 25.6979 10.9483 26.5 10.9483V10.3483ZM31.45 16.3384C31.45 16.3174 31.4589 16.3045 31.4645 16.2989C31.4702 16.2933 31.4818 16.2858 31.5 16.2858V16.8858C31.7975 16.8858 32.05 16.6404 32.05 16.3384H31.45ZM31.45 12.3801V16.3384H32.05V12.3801H31.45ZM31.5 12.4327C31.4818 12.4327 31.4702 12.4252 31.4645 12.4196C31.4589 12.414 31.45 12.4011 31.45 12.3801H32.05C32.05 12.0781 31.7975 11.8327 31.5 11.8327V12.4327ZM26.5 12.4327H31.5V11.8327H26.5V12.4327ZM26.55 12.3801C26.55 12.4011 26.5411 12.414 26.5355 12.4196C26.5298 12.4252 26.5182 12.4327 26.5 12.4327V11.8327C26.2025 11.8327 25.95 12.0781 25.95 12.3801H26.55ZM26.55 16.3384V12.3801H25.95V16.3384H26.55ZM26.5 16.2858C26.5182 16.2858 26.5298 16.2933 26.5355 16.2989C26.5411 16.3045 26.55 16.3174 26.55 16.3384H25.95C25.95 16.6404 26.2025 16.8858 26.5 16.8858V16.2858ZM31.5 16.2858H26.5V16.8858H31.5V16.2858Z" fill="#222532"/>
<path fill-rule="evenodd" clip-rule="evenodd" d="M36.5 27.7187C36.5 26.6267 37.3965 25.7395 38.5 25.7395C39.6035 25.7395 40.5 26.6286 40.5 27.7187C40.5 28.8107 39.6035 29.6978 38.5 29.6978C37.3965 29.6978 36.5 28.8107 36.5 27.7187ZM38 27.7187C38 27.9912 38.2246 28.2135 38.5 28.2135C38.7754 28.2135 39 27.9912 39 27.7187C39 27.4461 38.7754 27.2239 38.5 27.2239C38.2246 27.2239 38 27.4461 38 27.7187Z" fill="white"/>
<path d="M38.5 25.4395C37.2338 25.4395 36.2 26.458 36.2 27.7187H36.8C36.8 26.7953 37.5592 26.0395 38.5 26.0395V25.4395ZM40.8 27.7187C40.8 26.4601 39.7664 25.4395 38.5 25.4395V26.0395C39.4406 26.0395 40.2 26.797 40.2 27.7187H40.8ZM38.5 29.9978C39.7662 29.9978 40.8 28.9793 40.8 27.7187H40.2C40.2 28.642 39.4408 29.3978 38.5 29.3978V29.9978ZM36.2 27.7187C36.2 28.9793 37.2338 29.9978 38.5 29.9978V29.3978C37.5592 29.3978 36.8 28.642 36.8 27.7187H36.2ZM38.5 27.9135C38.3873 27.9135 38.3 27.8226 38.3 27.7187H37.7C37.7 28.1598 38.0619 28.5135 38.5 28.5135V27.9135ZM38.7 27.7187C38.7 27.8226 38.6127 27.9135 38.5 27.9135V28.5135C38.9381 28.5135 39.3 28.1598 39.3 27.7187H38.7ZM38.5 27.5239C38.6127 27.5239 38.7 27.6148 38.7 27.7187H39.3C39.3 27.2775 38.9381 26.9239 38.5 26.9239V27.5239ZM38.3 27.7187C38.3 27.6148 38.3873 27.5239 38.5 27.5239V26.9239C38.0619 26.9239 37.7 27.2775 37.7 27.7187H38.3Z" fill="#222532"/>
<path fill-rule="evenodd" clip-rule="evenodd" d="M9.75 27.7187C9.75 26.6267 10.6465 25.7395 11.75 25.7395C12.8535 25.7395 13.75 26.6286 13.75 27.7187C13.75 28.8107 12.8535 29.6978 11.75 29.6978C10.6465 29.6978 9.75 28.8087 9.75 27.7187ZM11.25 27.7187C11.25 27.9912 11.4746 28.2135 11.75 28.2135C12.0254 28.2135 12.25 27.9912 12.25 27.7187C12.25 27.4461 12.0254 27.2239 11.75 27.2239C11.4746 27.2239 11.25 27.4461 11.25 27.7187Z" fill="white"/>
<path d="M11.75 25.4395C10.4838 25.4395 9.45 26.458 9.45 27.7187H10.05C10.05 26.7953 10.8092 26.0395 11.75 26.0395V25.4395ZM14.05 27.7187C14.05 26.4601 13.0164 25.4395 11.75 25.4395V26.0395C12.6906 26.0395 13.45 26.797 13.45 27.7187H14.05ZM11.75 29.9978C13.0162 29.9978 14.05 28.9793 14.05 27.7187H13.45C13.45 28.642 12.6908 29.3978 11.75 29.3978V29.9978ZM9.45 27.7187C9.45 28.9772 10.4836 29.9978 11.75 29.9978V29.3978C10.8094 29.3978 10.05 28.6403 10.05 27.7187H9.45ZM11.75 27.9135C11.6373 27.9135 11.55 27.8226 11.55 27.7187H10.95C10.95 28.1598 11.3119 28.5135 11.75 28.5135V27.9135ZM11.95 27.7187C11.95 27.8226 11.8627 27.9135 11.75 27.9135V28.5135C12.1881 28.5135 12.55 28.1598 12.55 27.7187H11.95ZM11.75 27.5239C11.8627 27.5239 11.95 27.6148 11.95 27.7187H12.55C12.55 27.2775 12.1881 26.9239 11.75 26.9239V27.5239ZM11.55 27.7187C11.55 27.6148 11.6373 27.5239 11.75 27.5239V26.9239C11.3119 26.9239 10.95 27.2775 10.95 27.7187H11.55Z" fill="#222532"/>
<path d="M17.25 24.9973H32.75V26.4817H17.25V24.9973Z" fill="white" stroke="#222532" stroke-width="0.6"/>
</svg>
