<svg width="149" height="350" viewBox="0 0 149 350" fill="none" xmlns="http://www.w3.org/2000/svg">
<g opacity="0.03">
<path fill-rule="evenodd" clip-rule="evenodd" d="M147.191 0.0332031C180.607 0.0332031 213.051 11.3078 238.631 31.7826V31.7818C272.047 58.5114 291.701 96.5172 294.078 138.772C296.355 180.49 280.752 221.306 251.288 250.747L153.617 347.066C149.833 350.813 143.271 350.779 139.487 347.032L43.196 250.816C13.6649 221.308 -1.97137 180.459 0.338888 138.773C2.68232 96.5198 22.37 58.5139 55.7515 31.7826C81.2986 11.3078 113.777 0.0332031 147.191 0.0332031ZM81.5669 146.908C81.5669 183.073 110.997 212.481 147.191 212.481C183.385 212.481 212.85 183.074 212.816 146.908C212.816 110.742 183.386 81.3344 147.191 81.3344C110.998 81.3344 81.5669 110.741 81.5669 146.908Z" fill="white"/>
<path d="M147.191 114.946C129.546 114.946 115.216 129.265 115.216 146.896C115.216 164.528 129.546 178.847 147.191 178.847C164.837 178.847 179.167 164.528 179.167 146.896C179.167 129.265 164.837 114.946 147.191 114.946Z" fill="white"/>
</g>
</svg>
